<svg width="1593" height="1558" xmlns="http://www.w3.org/2000/svg" xmlns:xlink="http://www.w3.org/1999/xlink" xml:space="preserve" overflow="hidden"><defs><filter id="fx0" x="-10%" y="-10%" width="120%" height="120%" filterUnits="userSpaceOnUse" primitiveUnits="userSpaceOnUse"><feComponentTransfer color-interpolation-filters="sRGB"><feFuncR type="discrete" tableValues="0.321569 0.321569"/><feFuncG type="discrete" tableValues="0.427451 0.427451"/><feFuncB type="discrete" tableValues="0.509804 0.509804"/><feFuncA type="linear" slope="0.301961" intercept="0"/></feComponentTransfer><feGaussianBlur stdDeviation="0 0"/></filter><filter id="fx1" x="-10%" y="-10%" width="120%" height="120%" filterUnits="userSpaceOnUse" primitiveUnits="userSpaceOnUse"><feComponentTransfer color-interpolation-filters="sRGB"><feFuncR type="discrete" tableValues="0.321569 0.321569"/><feFuncG type="discrete" tableValues="0.427451 0.427451"/><feFuncB type="discrete" tableValues="0.509804 0.509804"/><feFuncA type="linear" slope="0.301961" intercept="0"/></feComponentTransfer><feGaussianBlur stdDeviation="0 0"/></filter><filter id="fx2" x="-10%" y="-10%" width="120%" height="120%" filterUnits="userSpaceOnUse" primitiveUnits="userSpaceOnUse"><feComponentTransfer color-interpolation-filters="sRGB"><feFuncR type="discrete" tableValues="0.321569 0.321569"/><feFuncG type="discrete" tableValues="0.427451 0.427451"/><feFuncB type="discrete" tableValues="0.509804 0.509804"/><feFuncA type="linear" slope="0.301961" intercept="0"/></feComponentTransfer><feGaussianBlur stdDeviation="0 0"/></filter><filter id="fx3" x="-10%" y="-10%" width="120%" height="120%" filterUnits="userSpaceOnUse" primitiveUnits="userSpaceOnUse"><feComponentTransfer color-interpolation-filters="sRGB"><feFuncR type="discrete" tableValues="0.392157 0.392157"/><feFuncG type="discrete" tableValues="0.513726 0.513726"/><feFuncB type="discrete" tableValues="0.611765 0.611765"/><feFuncA type="linear" slope="0.301961" intercept="0"/></feComponentTransfer><feGaussianBlur stdDeviation="0 0"/></filter><clipPath id="clip4"><rect x="857" y="144" width="1593" height="1558"/></clipPath><clipPath id="clip5"><rect x="1" y="0" width="1572" height="1541"/></clipPath><clipPath id="clip6"><rect x="1" y="0" width="598" height="187"/></clipPath><clipPath id="clip7"><rect x="1" y="0" width="239" height="187"/></clipPath><clipPath id="clip8"><rect x="1" y="0" width="45" height="45"/></clipPath></defs><g clip-path="url(#clip4)" transform="translate(-857 -144)"><g clip-path="url(#clip5)" filter="url(#fx0)" transform="translate(877 161)"><g><path d="M373.066 1500.18C373.066 1514.26 361.873 1525.68 348.066 1525.68 334.259 1525.68 323.066 1514.26 323.066 1500.18 323.066 1486.09 334.259 1474.68 348.066 1474.68 361.873 1474.68 373.066 1486.09 373.066 1500.18Z" fill="#496073" fill-rule="evenodd"/><path d="M0 25.4999C-3.18282e-15 11.4167 11.1928-3.24648e-15 24.9999-6.49296e-15 38.807-1.29859e-14 49.9998 11.4167 49.9998 25.4999 49.9998 39.5832 38.807 50.9999 24.9999 50.9999 11.1928 50.9999-1.59141e-14 39.5832 0 25.4999Z" fill="#9DB2BF" fill-rule="evenodd" transform="matrix(6.12323e-17 1 1 -6.12323e-17 1.06598 1146.68)"/><rect x="0" y="0" width="16.4996" height="221.1" fill="#9DB2BF" transform="matrix(0.768693 0.639617 0.639617 -0.768693 35.0793 1149.51)"/><path d="M40.566 866.677C26.4828 866.677 15.0661 855.484 15.0661 841.677 15.0661 827.87 26.4828 816.677 40.566 816.677 54.6493 816.677 66.066 827.87 66.066 841.677 66.066 855.484 54.6493 866.677 40.566 866.677Z" fill="#9DB2BF" fill-rule="evenodd"/><path d="M169.566 726.677C155.483 726.677 144.066 715.484 144.066 701.677 144.066 687.869 155.483 676.677 169.566 676.677 183.649 676.677 195.066 687.869 195.066 701.677 195.066 715.484 183.649 726.677 169.566 726.677Z" fill="#9DB2BF" fill-rule="evenodd"/><path d="M26.5661 399.677C12.4829 399.677 1.06616 388.484 1.06616 374.677 1.06616 360.869 12.4829 349.677 26.5661 349.677 40.6493 349.677 52.066 360.869 52.066 374.677 52.066 388.484 40.6493 399.677 26.5661 399.677Z" fill="#496073" fill-rule="evenodd"/><path d="M32.9684 394.52 45.6515 383.966 189.182 556.461 176.499 567.015Z" fill="#496073" fill-rule="evenodd"/><path d="M431.066 26.1766C431.066 12.0934 442.259 0.676697 456.066 0.676697 469.873 0.676697 481.066 12.0934 481.066 26.1766 481.066 40.2599 469.873 51.6766 456.066 51.6766 442.259 51.6766 431.066 40.2599 431.066 26.1766Z" fill="#9DB2BF" fill-rule="evenodd"/><rect x="447.066" y="46.6768" width="15.9998" height="149" fill="#9DB2BF"/><path d="M446.88 196.089 456.635 182.782 541.801 245.217 532.046 258.524Z" fill="#9DB2BF" fill-rule="evenodd"/><path d="M1196.16 15.6768C1209.91 15.6768 1221.07 27.0924 1221.07 41.174 1221.07 55.2556 1209.91 66.6712 1196.16 66.6712 1192.72 66.6712 1189.44 65.9578 1186.46 64.6676L1183.73 62.7818 1014.62 203.676 1004.07 190.983 1173.03 50.2129 1171.24 41.174C1171.24 27.0924 1182.4 15.6768 1196.16 15.6768Z" fill="#9DB2BF" fill-rule="evenodd"/><path d="M1394.45 471.677 1395.2 472.232 1395.2 471.896 1560.07 471.896 1560.07 488.41 1402.64 488.41 1345.36 566.677 1332.07 556.913Z" fill="#9DB2BF" fill-rule="evenodd"/><rect x="525.066" y="245.677" width="17.0002" height="122" fill="#9DB2BF"/><rect x="1004.07" y="190.677" width="15.9998" height="198" fill="#9DB2BF"/><path d="M667.066 159.177C667.066 145.093 678.259 133.677 692.066 133.677 705.873 133.677 717.066 145.093 717.066 159.177 717.066 173.26 705.873 184.677 692.066 184.677 678.259 184.677 667.066 173.26 667.066 159.177Z" fill="#9DB2BF" fill-rule="evenodd"/><path d="M830.066 47.1766C830.066 33.0934 841.259 21.6767 855.066 21.6767 868.873 21.6767 880.066 33.0934 880.066 47.1766 880.066 61.2598 868.873 72.6765 855.066 72.6765 841.259 72.6765 830.066 61.2598 830.066 47.1766Z" fill="#496073" fill-rule="evenodd"/><rect x="847.066" y="68.6768" width="16.0002" height="297" fill="#496073"/><rect x="684.066" y="183.677" width="16.9998" height="178" fill="#9DB2BF"/><rect x="1003.07" y="1172.68" width="16.0002" height="122" fill="#9DB2BF"/><rect x="1081.07" y="1345.68" width="16.9999" height="149" fill="#9DB2BF"/><path d="M1097.69 1345.02 1087.93 1358.33 1002.77 1295.9 1012.52 1282.59Z" fill="#9DB2BF" fill-rule="evenodd"/><path d="M1113.07 1515.18C1113.07 1529.26 1101.87 1540.68 1088.07 1540.68 1074.26 1540.68 1063.07 1529.26 1063.07 1515.18 1063.07 1501.09 1074.26 1489.68 1088.07 1489.68 1101.87 1489.68 1113.07 1501.09 1113.07 1515.18Z" fill="#9DB2BF" fill-rule="evenodd"/><rect x="524.066" y="1152.68" width="16.9998" height="198" fill="#496073"/><path d="M369.68 1492.84 359.127 1480.16 529.085 1338.74 539.638 1351.42Z" fill="#496073" fill-rule="evenodd"/><rect x="0" y="0" width="17.0002" height="330" fill="#9DB2BF" transform="matrix(1 -1.22465e-16 -1.22465e-16 -1 844.066 1486.68)"/><rect x="0" y="0" width="17.0002" height="198" fill="#496073" transform="matrix(1 -1.22465e-16 -1.22465e-16 -1 682.066 1368.68)"/><rect x="1196.07" y="550.677" width="148" height="15.9998" fill="#9DB2BF"/><path d="M1546.57 505.677C1532.48 505.677 1521.07 494.484 1521.07 480.677 1521.07 466.87 1532.48 455.677 1546.57 455.677 1560.65 455.677 1572.07 466.87 1572.07 480.677 1572.07 494.484 1560.65 505.677 1546.57 505.677Z" fill="#9DB2BF" fill-rule="evenodd"/><rect x="176.066" y="550.677" width="198" height="16.9998" fill="#496073"/><rect x="62.0662" y="833.677" width="297" height="16.0002" fill="#9DB2BF"/><rect x="193.066" y="692.677" width="165" height="16.9998" fill="#9DB2BF"/><rect x="1160.07" y="691.677" width="330" height="17.0002" fill="#496073"/><rect x="1158.07" y="832.677" width="198" height="16.0002" fill="#496073"/><rect x="0" y="0" width="15.9998" height="198" fill="#9DB2BF" transform="matrix(6.12323e-17 1 1 -6.12323e-17 176.066 979.677)"/><rect x="0" y="0" width="16.9998" height="165" fill="#496073" transform="matrix(6.12323e-17 1 1 -6.12323e-17 1395.07 1056.68)"/><rect x="0" y="0" width="16.9998" height="148" fill="#496073" transform="matrix(6.12323e-17 1 1 -6.12323e-17 1196.07 978.677)"/><rect x="0" y="0" width="16.4996" height="105.6" fill="#496073" transform="matrix(-0.806498 0.591236 0.591236 0.806498 1345.29 978.779)"/><path d="M0 25.4999C-3.11919e-15 11.4167 10.9691-3.24648e-15 24.5001-6.49296e-15 38.0311-1.29859e-14 49.0002 11.4167 49.0002 25.4999 49.0002 39.5832 38.0311 50.9999 24.5001 50.9999 10.9691 50.9999-1.55959e-14 39.5832 0 25.4999Z" fill="#496073" fill-rule="evenodd" transform="matrix(6.12323e-17 1 1 -6.12323e-17 1521.07 1040.68)"/><path d="M507.066 375.177C507.066 361.093 518.259 349.677 532.066 349.677 545.873 349.677 557.066 361.093 557.066 375.177 557.066 389.26 545.873 400.677 532.066 400.677 518.259 400.677 507.066 389.26 507.066 375.177Z" fill="#90A8B6" fill-rule="evenodd"/><path d="M667.066 375.177C667.066 361.093 678.259 349.677 692.066 349.677 705.873 349.677 717.066 361.093 717.066 375.177 717.066 389.26 705.873 400.677 692.066 400.677 678.259 400.677 667.066 389.26 667.066 375.177Z" fill="#90A8B6" fill-rule="evenodd"/><path d="M827.066 375.177C827.066 361.093 838.259 349.677 852.066 349.677 865.873 349.677 877.066 361.093 877.066 375.177 877.066 389.26 865.873 400.677 852.066 400.677 838.259 400.677 827.066 389.26 827.066 375.177Z" fill="#3A4D5C" fill-rule="evenodd"/><path d="M987.066 375.177C987.066 361.093 998.259 349.677 1012.07 349.677 1025.87 349.677 1037.07 361.093 1037.07 375.177 1037.07 389.26 1025.87 400.677 1012.07 400.677 998.259 400.677 987.066 389.26 987.066 375.177Z" fill="#90A8B6" fill-rule="evenodd"/><path d="M1173.57 532.677C1187.65 532.677 1199.07 543.87 1199.07 557.677 1199.07 571.484 1187.65 582.677 1173.57 582.677 1159.48 582.677 1148.07 571.484 1148.07 557.677 1148.07 543.87 1159.48 532.677 1173.57 532.677Z" fill="#90A8B6" fill-rule="evenodd"/><path d="M1173.57 675.677C1187.65 675.677 1199.07 686.646 1199.07 700.177 1199.07 713.708 1187.65 724.677 1173.57 724.677 1159.48 724.677 1148.07 713.708 1148.07 700.177 1148.07 686.646 1159.48 675.677 1173.57 675.677Z" fill="#3A4D5C" fill-rule="evenodd"/><path d="M1173.57 817.677C1187.65 817.677 1199.07 828.87 1199.07 842.677 1199.07 856.484 1187.65 867.677 1173.57 867.677 1159.48 867.677 1148.07 856.484 1148.07 842.677 1148.07 828.87 1159.48 817.677 1173.57 817.677Z" fill="#3A4D5C" fill-rule="evenodd"/><path d="M1173.57 962.677C1187.65 962.677 1199.07 973.869 1199.07 987.677 1199.07 1001.48 1187.65 1012.68 1173.57 1012.68 1159.48 1012.68 1148.07 1001.48 1148.07 987.677 1148.07 973.869 1159.48 962.677 1173.57 962.677Z" fill="#3A4D5C" fill-rule="evenodd"/><path d="M368.566 532.677C382.649 532.677 394.066 543.87 394.066 557.677 394.066 571.484 382.649 582.677 368.566 582.677 354.483 582.677 343.066 571.484 343.066 557.677 343.066 543.87 354.483 532.677 368.566 532.677Z" fill="#3A4D5C" fill-rule="evenodd"/><path d="M368.566 675.677C382.649 675.677 394.066 686.646 394.066 700.177 394.066 713.708 382.649 724.677 368.566 724.677 354.483 724.677 343.066 713.708 343.066 700.177 343.066 686.646 354.483 675.677 368.566 675.677Z" fill="#90A8B6" fill-rule="evenodd"/><path d="M368.566 817.677C382.649 817.677 394.066 828.87 394.066 842.677 394.066 856.484 382.649 867.677 368.566 867.677 354.483 867.677 343.066 856.484 343.066 842.677 343.066 828.87 354.483 817.677 368.566 817.677Z" fill="#90A8B6" fill-rule="evenodd"/><path d="M368.566 962.677C382.649 962.677 394.066 973.869 394.066 987.677 394.066 1001.48 382.649 1012.68 368.566 1012.68 354.483 1012.68 343.066 1001.48 343.066 987.677 343.066 973.869 354.483 962.677 368.566 962.677Z" fill="#90A8B6" fill-rule="evenodd"/><path d="M507.066 1169.18C507.066 1155.09 518.259 1143.68 532.066 1143.68 545.873 1143.68 557.066 1155.09 557.066 1169.18 557.066 1183.26 545.873 1194.68 532.066 1194.68 518.259 1194.68 507.066 1183.26 507.066 1169.18Z" fill="#3A4D5C" fill-rule="evenodd"/><path d="M667.066 1169.18C667.066 1155.09 678.259 1143.68 692.066 1143.68 705.873 1143.68 717.066 1155.09 717.066 1169.18 717.066 1183.26 705.873 1194.68 692.066 1194.68 678.259 1194.68 667.066 1183.26 667.066 1169.18Z" fill="#3A4D5C" fill-rule="evenodd"/><path d="M827.066 1169.18C827.066 1155.09 838.259 1143.68 852.066 1143.68 865.873 1143.68 877.066 1155.09 877.066 1169.18 877.066 1183.26 865.873 1194.68 852.066 1194.68 838.259 1194.68 827.066 1183.26 827.066 1169.18Z" fill="#90A8B6" fill-rule="evenodd"/><path d="M987.066 1169.18C987.066 1155.09 998.259 1143.68 1012.07 1143.68 1025.87 1143.68 1037.07 1155.09 1037.07 1169.18 1037.07 1183.26 1025.87 1194.68 1012.07 1194.68 998.259 1194.68 987.066 1183.26 987.066 1169.18Z" fill="#90A8B6" fill-rule="evenodd"/><path d="M508.463 416.057C457.065 416.057 415.398 457.776 415.398 509.239L415.398 1035.11C415.398 1086.58 457.065 1128.3 508.463 1128.3L1033.67 1128.3C1085.07 1128.3 1126.73 1086.58 1126.73 1035.11L1126.73 509.239C1126.73 457.776 1085.07 416.057 1033.67 416.057ZM501.397 378.677 1040.73 378.677C1108.85 378.677 1164.07 433.964 1164.07 502.165L1164.07 1042.19C1164.07 1110.39 1108.85 1165.68 1040.73 1165.68L501.397 1165.68C433.283 1165.68 378.066 1110.39 378.066 1042.19L378.066 502.165C378.066 433.964 433.283 378.677 501.397 378.677Z" fill="#9DB2BF" fill-rule="evenodd"/><path d="M0 25.5001C-3.18282e-15 11.4168 11.1928-3.2465e-15 24.9999-6.49301e-15 38.807-1.2986e-14 49.9998 11.4168 49.9998 25.5001 49.9998 39.5834 38.807 51.0002 24.9999 51.0002 11.1928 51.0002-1.59141e-14 39.5834 0 25.5001Z" fill="#9DB2BF" fill-rule="evenodd" transform="matrix(1 -1.22465e-16 -1.22465e-16 -1 827.066 1519.68)"/><path d="M0 25.4999C-3.18282e-15 11.4167 11.1928-3.24648e-15 24.9999-6.49296e-15 38.807-1.29859e-14 49.9998 11.4167 49.9998 25.4999 49.9998 39.5832 38.807 50.9999 24.9999 50.9999 11.1928 50.9999-1.59141e-14 39.5832 0 25.4999Z" fill="#496073" fill-rule="evenodd" transform="matrix(1 -1.22465e-16 -1.22465e-16 -1 665.066 1406.68)"/><path d="M1369.57 814.677C1383.65 814.677 1395.07 825.87 1395.07 839.677 1395.07 853.484 1383.65 864.677 1369.57 864.677 1355.48 864.677 1344.07 853.484 1344.07 839.677 1344.07 825.87 1355.48 814.677 1369.57 814.677Z" fill="#496073" fill-rule="evenodd"/><path d="M1497.57 674.677C1511.65 674.677 1523.07 685.87 1523.07 699.677 1523.07 713.484 1511.65 724.677 1497.57 724.677 1483.48 724.677 1472.07 713.484 1472.07 699.677 1472.07 685.87 1483.48 674.677 1497.57 674.677Z" fill="#496073" fill-rule="evenodd"/></g></g><path d="M1229 1643.5C1229 1657.58 1217.81 1669 1204 1669 1190.19 1669 1179 1657.58 1179 1643.5 1179 1629.42 1190.19 1618 1204 1618 1217.81 1618 1229 1629.42 1229 1643.5Z" fill="#496073" fill-rule="evenodd"/><path d="M0 25.4999C-3.18282e-15 11.4167 11.1928-3.24648e-15 24.9999-6.49296e-15 38.807-1.29859e-14 49.9998 11.4167 49.9998 25.4999 49.9998 39.5832 38.807 50.9999 24.9999 50.9999 11.1928 50.9999-1.59141e-14 39.5832 0 25.4999Z" fill="#9DB2BF" fill-rule="evenodd" transform="matrix(6.12323e-17 1 1 -6.12323e-17 857 1290)"/><rect x="0" y="0" width="16.4996" height="221.1" fill="#9DB2BF" transform="matrix(0.768693 0.639617 0.639617 -0.768693 891.013 1292.83)"/><path d="M896.5 1010C882.417 1010 871 998.807 871 985 871 971.193 882.417 960 896.5 960 910.583 960 922 971.193 922 985 922 998.807 910.583 1010 896.5 1010Z" fill="#9DB2BF" fill-rule="evenodd"/><path d="M1025.5 870C1011.42 870 1000 858.807 1000 845 1000 831.193 1011.42 820 1025.5 820 1039.58 820 1051 831.193 1051 845 1051 858.807 1039.58 870 1025.5 870Z" fill="#9DB2BF" fill-rule="evenodd"/><path d="M882.5 543C868.417 543 857 531.807 857 518 857 504.193 868.417 493 882.5 493 896.583 493 908 504.193 908 518 908 531.807 896.583 543 882.5 543Z" fill="#496073" fill-rule="evenodd"/><path d="M888.902 537.843 901.585 527.29 1045.12 699.785 1032.43 710.338Z" fill="#496073" fill-rule="evenodd"/><path d="M1287 169.5C1287 155.417 1298.19 144 1312 144 1325.81 144 1337 155.417 1337 169.5 1337 183.583 1325.81 195 1312 195 1298.19 195 1287 183.583 1287 169.5Z" fill="#9DB2BF" fill-rule="evenodd"/><rect x="1303" y="190" width="15.9998" height="149" fill="#9DB2BF"/><path d="M1302.81 339.413 1312.57 326.106 1397.73 388.54 1387.98 401.847Z" fill="#9DB2BF" fill-rule="evenodd"/><path d="M2052.09 159C2065.85 159 2077 170.416 2077 184.497 2077 198.579 2065.85 209.995 2052.09 209.995 2048.65 209.995 2045.37 209.281 2042.39 207.991L2039.66 206.105 1870.55 347 1860 334.306 2028.96 193.536 2027.18 184.497C2027.18 170.416 2038.33 159 2052.09 159Z" fill="#9DB2BF" fill-rule="evenodd"/><path d="M2250.38 615 2251.14 615.555 2251.14 615.22 2416 615.22 2416 631.733 2258.58 631.733 2201.3 710 2188 700.237Z" fill="#9DB2BF" fill-rule="evenodd"/><rect x="1381" y="389" width="17.0002" height="122" fill="#9DB2BF"/><rect x="1860" y="334" width="15.9998" height="198" fill="#9DB2BF"/><path d="M1523 302.5C1523 288.417 1534.19 277 1548 277 1561.81 277 1573 288.417 1573 302.5 1573 316.583 1561.81 328 1548 328 1534.19 328 1523 316.583 1523 302.5Z" fill="#9DB2BF" fill-rule="evenodd"/><path d="M1686 190.5C1686 176.417 1697.19 165 1711 165 1724.81 165 1736 176.417 1736 190.5 1736 204.583 1724.81 216 1711 216 1697.19 216 1686 204.583 1686 190.5Z" fill="#496073" fill-rule="evenodd"/><rect x="1703" y="212" width="16.0001" height="297" fill="#496073"/><rect x="1540" y="327" width="16.9999" height="178" fill="#9DB2BF"/><rect x="1859" y="1316" width="16.0001" height="122" fill="#9DB2BF"/><rect x="1937" y="1489" width="16.9999" height="149" fill="#9DB2BF"/><path d="M1953.62 1488.35 1943.87 1501.65 1858.7 1439.22 1868.46 1425.91Z" fill="#9DB2BF" fill-rule="evenodd"/><path d="M1969 1658.5C1969 1672.58 1957.81 1684 1944 1684 1930.19 1684 1919 1672.58 1919 1658.5 1919 1644.42 1930.19 1633 1944 1633 1957.81 1633 1969 1644.42 1969 1658.5Z" fill="#9DB2BF" fill-rule="evenodd"/><rect x="1380" y="1296" width="16.9999" height="198" fill="#496073"/><path d="M1225.61 1636.17 1215.06 1623.48 1385.02 1482.06 1395.57 1494.75Z" fill="#496073" fill-rule="evenodd"/><rect x="0" y="0" width="17.0002" height="330" fill="#9DB2BF" transform="matrix(1 -1.22465e-16 -1.22465e-16 -1 1700 1630)"/><rect x="0" y="0" width="17.0002" height="198" fill="#496073" transform="matrix(1 -1.22465e-16 -1.22465e-16 -1 1538 1512)"/><rect x="2052" y="694" width="148" height="15.9998" fill="#9DB2BF"/><path d="M2402.5 649C2388.42 649 2377 637.807 2377 624 2377 610.193 2388.42 599 2402.5 599 2416.58 599 2428 610.193 2428 624 2428 637.807 2416.58 649 2402.5 649Z" fill="#9DB2BF" fill-rule="evenodd"/><rect x="1032" y="694" width="198" height="16.9998" fill="#496073"/><rect x="918" y="977" width="297" height="16.0002" fill="#9DB2BF"/><rect x="1049" y="836" width="165" height="16.9998" fill="#9DB2BF"/><rect x="2016" y="835" width="330" height="17.0002" fill="#496073"/><rect x="2014" y="976" width="198" height="16.0002" fill="#496073"/><rect x="0" y="0" width="15.9998" height="198" fill="#9DB2BF" transform="matrix(6.12323e-17 1 1 -6.12323e-17 1032 1123)"/><rect x="0" y="0" width="16.9998" height="165" fill="#496073" transform="matrix(6.12323e-17 1 1 -6.12323e-17 2251 1200)"/><rect x="0" y="0" width="16.9998" height="148" fill="#496073" transform="matrix(6.12323e-17 1 1 -6.12323e-17 2052 1122)"/><rect x="0" y="0" width="16.4996" height="105.6" fill="#496073" transform="matrix(-0.806498 0.591236 0.591236 0.806498 2201.23 1122.1)"/><path d="M0 25.4999C-3.11919e-15 11.4167 10.9691-3.24648e-15 24.5001-6.49296e-15 38.0311-1.29859e-14 49.0002 11.4167 49.0002 25.4999 49.0002 39.5832 38.0311 50.9999 24.5001 50.9999 10.9691 50.9999-1.55959e-14 39.5832 0 25.4999Z" fill="#496073" fill-rule="evenodd" transform="matrix(6.12323e-17 1 1 -6.12323e-17 2377 1184)"/><path d="M1363 518.5C1363 504.417 1374.19 493 1388 493 1401.81 493 1413 504.417 1413 518.5 1413 532.583 1401.81 544 1388 544 1374.19 544 1363 532.583 1363 518.5Z" fill="#90A8B6" fill-rule="evenodd"/><path d="M1523 518.5C1523 504.417 1534.19 493 1548 493 1561.81 493 1573 504.417 1573 518.5 1573 532.583 1561.81 544 1548 544 1534.19 544 1523 532.583 1523 518.5Z" fill="#90A8B6" fill-rule="evenodd"/><path d="M1683 518.5C1683 504.417 1694.19 493 1708 493 1721.81 493 1733 504.417 1733 518.5 1733 532.583 1721.81 544 1708 544 1694.19 544 1683 532.583 1683 518.5Z" fill="#3A4D5C" fill-rule="evenodd"/><path d="M1843 518.5C1843 504.417 1854.19 493 1868 493 1881.81 493 1893 504.417 1893 518.5 1893 532.583 1881.81 544 1868 544 1854.19 544 1843 532.583 1843 518.5Z" fill="#90A8B6" fill-rule="evenodd"/><path d="M2029.5 676C2043.58 676 2055 687.193 2055 701 2055 714.807 2043.58 726 2029.5 726 2015.42 726 2004 714.807 2004 701 2004 687.193 2015.42 676 2029.5 676Z" fill="#90A8B6" fill-rule="evenodd"/><path d="M2029.5 819C2043.58 819 2055 829.969 2055 843.5 2055 857.031 2043.58 868 2029.5 868 2015.42 868 2004 857.031 2004 843.5 2004 829.969 2015.42 819 2029.5 819Z" fill="#3A4D5C" fill-rule="evenodd"/><path d="M2029.5 961C2043.58 961 2055 972.193 2055 986 2055 999.807 2043.58 1011 2029.5 1011 2015.42 1011 2004 999.807 2004 986 2004 972.193 2015.42 961 2029.5 961Z" fill="#3A4D5C" fill-rule="evenodd"/><path d="M2029.5 1106C2043.58 1106 2055 1117.19 2055 1131 2055 1144.81 2043.58 1156 2029.5 1156 2015.42 1156 2004 1144.81 2004 1131 2004 1117.19 2015.42 1106 2029.5 1106Z" fill="#3A4D5C" fill-rule="evenodd"/><path d="M1224.5 676C1238.58 676 1250 687.193 1250 701 1250 714.807 1238.58 726 1224.5 726 1210.42 726 1199 714.807 1199 701 1199 687.193 1210.42 676 1224.5 676Z" fill="#3A4D5C" fill-rule="evenodd"/><path d="M1224.5 819C1238.58 819 1250 829.969 1250 843.5 1250 857.031 1238.58 868 1224.5 868 1210.42 868 1199 857.031 1199 843.5 1199 829.969 1210.42 819 1224.5 819Z" fill="#90A8B6" fill-rule="evenodd"/><path d="M1224.5 961C1238.58 961 1250 972.193 1250 986 1250 999.807 1238.58 1011 1224.5 1011 1210.42 1011 1199 999.807 1199 986 1199 972.193 1210.42 961 1224.5 961Z" fill="#90A8B6" fill-rule="evenodd"/><path d="M1224.5 1106C1238.58 1106 1250 1117.19 1250 1131 1250 1144.81 1238.58 1156 1224.5 1156 1210.42 1156 1199 1144.81 1199 1131 1199 1117.19 1210.42 1106 1224.5 1106Z" fill="#90A8B6" fill-rule="evenodd"/><path d="M1363 1312.5C1363 1298.42 1374.19 1287 1388 1287 1401.81 1287 1413 1298.42 1413 1312.5 1413 1326.58 1401.81 1338 1388 1338 1374.19 1338 1363 1326.58 1363 1312.5Z" fill="#3A4D5C" fill-rule="evenodd"/><path d="M1523 1312.5C1523 1298.42 1534.19 1287 1548 1287 1561.81 1287 1573 1298.42 1573 1312.5 1573 1326.58 1561.81 1338 1548 1338 1534.19 1338 1523 1326.58 1523 1312.5Z" fill="#3A4D5C" fill-rule="evenodd"/><path d="M1683 1312.5C1683 1298.42 1694.19 1287 1708 1287 1721.81 1287 1733 1298.42 1733 1312.5 1733 1326.58 1721.81 1338 1708 1338 1694.19 1338 1683 1326.58 1683 1312.5Z" fill="#90A8B6" fill-rule="evenodd"/><path d="M1843 1312.5C1843 1298.42 1854.19 1287 1868 1287 1881.81 1287 1893 1298.42 1893 1312.5 1893 1326.58 1881.81 1338 1868 1338 1854.19 1338 1843 1326.58 1843 1312.5Z" fill="#90A8B6" fill-rule="evenodd"/><path d="M1364.4 559.38C1313 559.38 1271.33 601.099 1271.33 652.563L1271.33 1178.44C1271.33 1229.9 1313 1271.62 1364.4 1271.62L1889.6 1271.62C1941 1271.62 1982.67 1229.9 1982.67 1178.44L1982.67 652.563C1982.67 601.099 1941 559.38 1889.6 559.38ZM1357.33 522 1896.67 522C1964.78 522 2020 577.288 2020 645.488L2020 1185.51C2020 1253.71 1964.78 1309 1896.67 1309L1357.33 1309C1289.22 1309 1234 1253.71 1234 1185.51L1234 645.488C1234 577.288 1289.22 522 1357.33 522Z" fill="#9DB2BF" fill-rule="evenodd"/><path d="M0 25.5001C-3.18282e-15 11.4168 11.1928-3.2465e-15 24.9999-6.49301e-15 38.807-1.2986e-14 49.9998 11.4168 49.9998 25.5001 49.9998 39.5834 38.807 51.0002 24.9999 51.0002 11.1928 51.0002-1.59141e-14 39.5834 0 25.5001Z" fill="#9DB2BF" fill-rule="evenodd" transform="matrix(1 -1.22465e-16 -1.22465e-16 -1 1683 1663)"/><path d="M0 25.4999C-3.18282e-15 11.4167 11.1928-3.24648e-15 24.9999-6.49296e-15 38.807-1.29859e-14 49.9998 11.4167 49.9998 25.4999 49.9998 39.5832 38.807 50.9999 24.9999 50.9999 11.1928 50.9999-1.59141e-14 39.5832 0 25.4999Z" fill="#496073" fill-rule="evenodd" transform="matrix(1 -1.22465e-16 -1.22465e-16 -1 1521 1550)"/><path d="M2225.5 958C2239.58 958 2251 969.193 2251 983 2251 996.807 2239.58 1008 2225.5 1008 2211.42 1008 2200 996.807 2200 983 2200 969.193 2211.42 958 2225.5 958Z" fill="#496073" fill-rule="evenodd"/><path d="M2353.5 818C2367.58 818 2379 829.193 2379 843 2379 856.807 2367.58 868 2353.5 868 2339.42 868 2328 856.807 2328 843 2328 829.193 2339.42 818 2353.5 818Z" fill="#496073" fill-rule="evenodd"/><g clip-path="url(#clip6)" filter="url(#fx1)" transform="translate(1352 831)"><g><path d="M442.233 54.2245 473.641 54.2245 473.641 152.546C481.292 152.546 488.64 150.893 495.687 147.587 502.734 144.282 509.398 139.908 515.68 134.466 521.961 129.024 527.78 122.836 533.135 115.902 538.491 108.968 543.263 101.853 547.45 94.5567 551.638 87.2604 555.202 80.1049 558.142 73.0907 561.081 66.0764 563.276 59.7877 564.725 54.2245L598.066 54.2245C594.523 65.2703 590.376 76.1543 585.624 86.8776 580.872 97.6005 575.416 107.82 569.255 117.535 563.094 127.25 556.209 136.24 548.598 144.504 540.988 152.767 532.572 159.903 523.351 165.909 514.129 171.916 504.103 176.632 493.271 180.059 482.439 183.485 470.701 185.198 458.057 185.198 455.883 185.198 453.829 184.795 451.897 183.989 449.964 183.183 448.273 182.074 446.823 180.663 445.373 179.252 444.246 177.6 443.44 175.705 442.635 173.81 442.233 171.775 442.233 169.598ZM114.378 0.676636 145.787 0.676636 145.787 142.535C145.787 147.937 145.102 152.794 143.733 157.108 142.364 161.421 140.552 165.21 138.297 168.476 136.042 171.741 133.425 174.522 130.445 176.82 127.465 179.118 124.344 180.992 121.083 182.444 117.821 183.895 114.519 184.963 111.177 185.648 107.835 186.334 104.674 186.677 101.694 186.677L45.038 186.677C39.6423 186.677 34.8104 185.991 30.542 184.621 26.2736 183.25 22.5085 181.416 19.247 179.118 15.9854 176.82 13.2069 174.18 10.9115 171.197 8.6164 168.213 6.74411 165.09 5.29426 161.824 3.84477 158.559 2.77768 155.253 2.09298 151.907 1.40864 148.561 1.06628 145.437 1.06628 142.535L1.06628 99.9653C1.06628 91.9026 2.53598 85.07 5.47572 79.4664 8.4151 73.8632 12.0792 69.308 16.4685 65.8008 20.8577 62.2937 25.6293 59.7739 30.7834 58.2423 35.9377 56.7103 40.6892 55.9443 45.038 55.9443L101.694 55.9443 101.694 87.3879 45.2797 87.3879C41.0918 87.3879 37.9107 88.4562 35.7364 90.5928 33.5618 92.7293 32.4749 95.8533 32.4749 99.9653L32.4749 142.293C32.4749 146.566 33.542 149.791 35.6758 151.968 37.81 154.144 40.9309 155.233 45.038 155.233L101.694 155.233C105.962 155.233 109.143 154.144 111.237 151.968 113.331 149.791 114.378 146.647 114.378 142.535Z" fill="#9BABB8" fill-rule="evenodd"/></g></g><path d="M1773.17 867.548 1804.57 867.548 1804.57 965.869C1812.23 965.869 1819.57 964.216 1826.62 960.911 1833.67 957.605 1840.33 953.231 1846.61 947.789 1852.9 942.347 1858.71 936.159 1864.07 929.226 1869.42 922.292 1874.2 915.177 1878.38 907.88 1882.57 900.584 1886.14 893.428 1889.08 886.414 1892.01 879.4 1894.21 873.111 1895.66 867.548L1929 867.548C1925.46 878.594 1921.31 889.478 1916.56 900.201 1911.81 910.924 1906.35 921.143 1900.19 930.858 1894.03 940.573 1887.14 949.563 1879.53 957.827 1871.92 966.091 1863.51 973.226 1854.28 979.233 1845.06 985.239 1835.04 989.956 1824.2 993.382 1813.37 996.808 1801.64 998.522 1788.99 998.522 1786.82 998.522 1784.76 998.119 1782.83 997.313 1780.9 996.506 1779.21 995.398 1777.76 993.987 1776.31 992.576 1775.18 990.923 1774.37 989.029 1773.57 987.134 1773.17 985.098 1773.17 982.921ZM1445.31 814 1476.72 814 1476.72 955.858C1476.72 961.26 1476.04 966.117 1474.67 970.431 1473.3 974.744 1471.49 978.534 1469.23 981.799 1466.98 985.064 1464.36 987.846 1461.38 990.143 1458.4 992.441 1455.28 994.316 1452.02 995.767 1448.75 997.218 1445.45 998.287 1442.11 998.972 1438.77 999.657 1435.61 1000 1432.63 1000L1375.97 1000C1370.58 1000 1365.74 999.315 1361.48 997.944 1357.21 996.573 1353.44 994.739 1350.18 992.441 1346.92 990.143 1344.14 987.503 1341.85 984.52 1339.55 981.537 1337.68 978.413 1336.23 975.147 1334.78 971.882 1333.71 968.577 1333.03 965.231 1332.34 961.885 1332 958.76 1332 955.858L1332 913.289C1332 905.226 1333.47 898.393 1336.41 892.79 1339.35 887.187 1343.01 882.631 1347.4 879.124 1351.79 875.617 1356.56 873.097 1361.72 871.566 1366.87 870.034 1371.62 869.268 1375.97 869.268L1432.63 869.268 1432.63 900.711 1376.21 900.711C1372.03 900.711 1368.84 901.78 1366.67 903.916 1364.5 906.053 1363.41 909.177 1363.41 913.289L1363.41 955.616C1363.41 959.889 1364.48 963.114 1366.61 965.291 1368.74 967.468 1371.86 968.556 1375.97 968.556L1432.63 968.556C1436.9 968.556 1440.08 967.468 1442.17 965.291 1444.27 963.114 1445.31 959.97 1445.31 955.858Z" fill="#9BABB8" fill-rule="evenodd"/><g clip-path="url(#clip7)" filter="url(#fx2)" transform="translate(1526 829)"><g><path d="M207.699 55.9442 239.066 55.9442 239.066 186.677 207.699 186.677ZM87.5686 44.6973C86.6034 44.6973 84.5728 44.8385 81.4762 45.1205 78.3796 45.403 74.8006 46.1083 70.7388 47.2369 66.6769 48.3658 62.3939 50.099 57.89 52.4371 53.3858 54.7752 49.2437 58.0003 45.4636 62.112 41.6835 66.224 38.5667 71.3636 36.1136 77.5317 33.6604 83.6994 32.434 91.177 32.434 99.9653L32.434 112.663 142.703 112.663 142.703 44.6973ZM87.5686 13.254 158.267 13.254C160.438 13.254 162.489 13.6571 164.42 14.4632 166.35 15.2696 168.039 16.3982 169.487 17.8493 170.934 19.3008 172.061 20.9938 172.865 22.9289 173.669 24.8639 174.071 26.9196 174.071 29.0966L174.071 186.677 142.703 186.677 142.703 144.107 32.434 144.107 32.434 186.677 1.06616 186.677 1.06616 99.9653C1.06616 87.3073 3.23794 75.6569 7.58112 65.0145 11.9243 54.3721 17.9565 45.2213 25.6777 37.562 33.3992 29.9027 42.528 23.9365 53.0641 19.6634 63.6005 15.3906 75.1021 13.254 87.5686 13.254ZM207.699 0.676575 239.066 0.676575 239.066 29.0966 207.699 29.0966Z" fill="#3A4D5C" fill-rule="evenodd"/></g></g><path d="M1712.63 867.268 1744 867.268 1744 998 1712.63 998ZM1592.5 856.021C1591.54 856.021 1589.51 856.162 1586.41 856.444 1583.31 856.726 1579.73 857.432 1575.67 858.56 1571.61 859.689 1567.33 861.422 1562.82 863.76 1558.32 866.099 1554.18 869.324 1550.4 873.435 1546.62 877.547 1543.5 882.687 1541.05 888.855 1538.59 895.023 1537.37 902.5 1537.37 911.289L1537.37 923.987 1647.64 923.987 1647.64 856.021ZM1592.5 824.577 1663.2 824.577C1665.37 824.577 1667.42 824.98 1669.35 825.786 1671.28 826.593 1672.97 827.722 1674.42 829.173 1675.87 830.624 1676.99 832.317 1677.8 834.252 1678.6 836.187 1679.01 838.243 1679.01 840.42L1679.01 998 1647.64 998 1647.64 955.43 1537.37 955.43 1537.37 998 1506 998 1506 911.289C1506 898.631 1508.17 886.98 1512.52 876.338 1516.86 865.695 1522.89 856.545 1530.61 848.885 1538.33 841.226 1547.46 835.26 1558 830.987 1568.53 826.714 1580.04 824.577 1592.5 824.577ZM1712.63 812 1744 812 1744 840.42 1712.63 840.42Z" fill="#3A4D5C" fill-rule="evenodd"/><g clip-path="url(#clip8)" filter="url(#fx3)" transform="translate(1918 623)"><g><path d="M1.06604 22.6767C1.06604 10.5264 10.9158 0.676697 23.066 0.676697 35.2163 0.676697 45.066 10.5264 45.066 22.6767 45.066 34.827 35.2163 44.6767 23.066 44.6767 10.9158 44.6767 1.06604 34.827 1.06604 22.6767Z" fill="#8497B0" fill-rule="evenodd"/></g></g><path d="M1898 628C1898 615.85 1907.85 606 1920 606 1932.15 606 1942 615.85 1942 628 1942 640.15 1932.15 650 1920 650 1907.85 650 1898 640.15 1898 628Z" fill="#8497B0" fill-rule="evenodd"/></g></svg>