<svg width="1150" height="786" xmlns="http://www.w3.org/2000/svg" xmlns:xlink="http://www.w3.org/1999/xlink" xml:space="preserve" overflow="hidden"><defs><clipPath id="clip0"><rect x="1864" y="1001" width="672" height="473"/></clipPath><clipPath id="clip1"><rect x="1864" y="1001" width="672" height="473"/></clipPath><clipPath id="clip2"><rect x="1864" y="1001" width="672" height="473"/></clipPath><clipPath id="clip3"><rect x="1864" y="1001" width="672" height="473"/></clipPath></defs><g transform="translate(-1625 -795)"><g clip-path="url(#clip0)"><g clip-path="url(#clip1)"><g clip-path="url(#clip2)"><g clip-path="url(#clip3)"><path d="M-634.487 90.757C-654.221 95.3018-666.68 120.913-656.708 136.438-656.001 137.539-655.023 139.097-654.532 139.9-644.723 155.985-620.756 159.548-606.045 147.104-579.675 124.804-600.775 82.9986-634.487 90.757M-634.11 171.674C-642.201 177.376-647.552 181.41-652.953 185.865-655.63 188.076-659.733 191.427-662.069 193.312-671.311 200.781-687.059 215.705-694.831 224.361-698.091 227.994-702.077 232.395-703.689 234.146-705.299 235.893-707.697 238.739-709.019 240.47-710.338 242.199-713.658 246.527-716.395 250.086-721.248 256.403-724.19 260.552-729.892 269.133-731.428 271.443-733.387 274.365-734.246 275.622-735.661 277.689-738.159 281.985-742.329 289.508-743.151 290.988-744.635 293.614-745.63 295.343-747.706 298.945-755.439 314.635-755.439 315.241-755.439 315.463-756.048 316.799-756.793 318.212-757.536 319.624-758.443 321.698-758.807 322.821-759.75 325.729-763.002 327.333-764.275 325.52-766.594 322.212-775.648 312.86-784.354 304.773-795.685 294.244-812.182 283.862-830.53 275.699-842.985 270.153-862.381 266.076-877.799 265.757-887.583 265.556-905.049 267.516-909.106 269.269-910.091 269.69-913.597 270.905-916.905 271.965-924.894 274.527-934.087 279.147-935.198 281.157-936.167 282.905-935.576 284.465-932.338 288.769-931.393 290.027-929.66 292.448-928.486 294.152-927.312 295.856-925.776 298.042-925.067 299.011-922.176 302.96-921.096 304.486-918.906 307.651-917.646 309.477-916.102 311.663-915.472 312.511-914.841 313.361-912.848 316.209-911.036 318.847-909.224 321.482-905.191 327.238-902.055 331.639-898.928 336.041-895.824 340.412-895.162 341.356-894.5 342.3-892.034 345.771-889.679 349.073-887.331 352.374-883.991 357.132-882.258 359.648-878.09 365.713-878.523 365.098-867.47 380.796-856.15 396.878-854.96 398.571-851.919 403-850.659 404.836-849.114 407.044-848.484 407.904-847.854 408.764-846.373 410.863-845.191 412.568-836.447 425.206-834.721 427.675-832.594 430.573-831.885 431.541-830.341 433.727-829.159 435.431-819.958 448.726-818.477 450.847-814.451 456.534-812.552 459.206-809.661 463.321-808.015 465.679-806.376 468.036-804.241 471.076-803.28 472.434-802.319 473.789-801.019 475.74-800.389 476.767-799.758 477.793-798.592 479.429-797.812 480.406-797.025 481.379-795.733 483.106-794.945 484.238-793.346 486.549-790.746 490.028-789.485 491.543-788.201 493.1-466.51 493.1-464.651 491.543-463.995 490.993-462.871 489.714-462.155 488.7-461.438 487.685-459.537 484.985-457.931 482.697-456.324 480.411-454.189 477.381-453.192 475.966-452.192 474.552-450.415 472.001-449.241 470.297-448.07 468.595-446.596 466.507-445.965 465.657-445.336 464.808-443.331 461.957-441.513 459.322-439.695 456.687-436.655 452.346-434.755 449.673-431.42 444.985-429.606 442.402-427.531 439.385-426.989 438.598-423.819 434.098-420.484 429.383-417.15 424.668-413.918 420.066-413.303 419.157-412.687 418.248-411.603 416.704-410.894 415.727-410.184 414.747-408.921 412.919-408.089 411.661-407.255 410.406-406.393 409.249-406.171 409.091-405.951 408.934-405.098 407.777-404.274 406.519-403.45 405.261-401.957 403.075-400.955 401.66-399.952 400.246-397.817 397.2-396.21 394.892-394.602 392.585-392.774 389.991-392.143 389.13-391.513 388.268-389.966 386.071-388.709 384.245-387.449 382.419-385.902 380.217-385.273 379.352-384.642 378.486-382.629 375.627-380.797 372.998-378.965 370.371-375.922 366.034-374.037 363.362-368.33 355.277-367.422 353.981-361.166 344.986-359.558 342.673-357.423 339.628-356.421 338.213-355.418 336.798-353.966 334.739-353.193 333.639-352.421 332.54-350.232 329.454-348.327 326.781-346.422 324.109-344.243 320.99-343.49 319.848-342.365 318.149-335.28 308.092-328.754 298.932-328.034 297.92-326.855 296.249-326.137 295.218-325.416 294.185-323.118 290.922-321.032 287.963-317.398 282.816-317.268 282.52-318.043 281.103-319.135 279.112-329.039 274.375-338.036 271.546-339.453 271.099-342.16 270.229-344.048 269.614-345.936 268.998-350.446 268.1-354.069 267.618-357.689 267.139-361.683 266.498-362.943 266.195-369.516 264.618-390.08 265.979-402.737 268.83-411.972 270.91-413.736 271.37-415.757 272.228-416.941 272.731-419.326 273.613-421.058 274.189-429.463 276.978-437.766 281.086-446.483 286.767-448.653 288.182-450.839 289.597-451.347 289.914-458.988 294.671-475.948 310.275-485.673 321.492-490.149 326.654-492.618 327.238-494.121 323.494-494.593 322.315-495.707 319.807-496.595 317.92-497.481 316.034-498.912 312.947-499.772 311.062-502.473 305.137-508.627 292.916-510.708 289.34-511.805 287.454-513.097 285.047-513.58 283.99-514.062 282.932-515.13 281.003-515.951 279.702-517.585 277.116-519.386 274.224-521.438 270.907-522.701 268.86-524.088 266.69-529.014 259.046-530.228 257.161-531.493 255.326-531.824 254.969-532.152 254.612-534.098 252.091-536.146 249.365-558.65 219.382-583.097 196.225-614.629 175.026-627.46 166.397-626.791 166.513-634.11 171.674M-952.916 213.106C-960.054 214.291-966.222 220.128-968.767 228.108-974.778 246.927-952.995 263.447-936.545 252.546-915.535 238.609-927.84 208.95-952.916 213.106M-325.438 213.238C-329.657 214.15-335.05 217.972-338.149 222.243-351.646 240.843-328.576 264.507-308.434 252.724-286.917 240.135-300.794 207.906-325.438 213.238M-707.345 523.976C-788.918 524.29-785.231 524.144-786.029 527.098-786.202 527.742-786.345 535.161-786.351 543.586L-786.359 558.902-784.952 560.303-783.546 561.707-627.024 561.707-470.498 561.707-469.111 560.233-467.724 558.759-467.558 543.229C-467.369 525.334-467.556 524.487-471.815 523.787-474.135 523.403-579.58 523.489-707.345 523.976" fill="#F3BB44" fill-rule="evenodd" transform="matrix(1 0 0 1.00234 2833.79 910.98)"/></g></g></g></g></g></svg>