<svg preserveAspectRatio="xMidYMid meet" width="2782" height="2534" xmlns="http://www.w3.org/2000/svg" xmlns:xlink="http://www.w3.org/1999/xlink" xml:space="preserve" overflow="hidden"><defs><filter id="fx0" x="-10%" y="-10%" width="120%" height="120%" filterUnits="userSpaceOnUse" primitiveUnits="userSpaceOnUse"><feComponentTransfer color-interpolation-filters="sRGB"><feFuncR type="discrete" tableValues="0 0"/><feFuncG type="discrete" tableValues="0 0"/><feFuncB type="discrete" tableValues="0 0"/><feFuncA type="linear" slope="0.101961" intercept="0"/></feComponentTransfer><feGaussianBlur stdDeviation="0 0"/></filter><filter id="fx1" x="-10%" y="-10%" width="120%" height="120%" filterUnits="userSpaceOnUse" primitiveUnits="userSpaceOnUse"><feComponentTransfer color-interpolation-filters="sRGB"><feFuncR type="discrete" tableValues="0 0"/><feFuncG type="discrete" tableValues="0 0"/><feFuncB type="discrete" tableValues="0 0"/><feFuncA type="linear" slope="0.2" intercept="0"/></feComponentTransfer><feGaussianBlur stdDeviation="7.33333 7.35529"/></filter><clipPath id="clip2"><rect x="809" y="-60" width="2782" height="2534"/></clipPath><clipPath id="clip3"><rect x="0" y="0" width="390" height="67"/></clipPath></defs><g clip-path="url(#clip2)" transform="translate(-809 60)"><path d="M809 2343.5C809 2271.43 1431.77 2213 2200 2213 2968.23 2213 3591 2271.43 3591 2343.5 3591 2415.57 2968.23 2474 2200 2474 1431.77 2474 809 2415.57 809 2343.5Z" fill="#C0C1C5" fill-rule="evenodd" fill-opacity="0.2"/><g filter="url(#fx0)" transform="translate(1152 261)"><g><path d="M0.999878 35.8344C0.999878 16.5038 16.6699 0.833191 35.9999 0.833191L2059 0.833191C2078.33 0.833191 2094 16.5038 2094 35.8344L2094 35.8344C2094 55.165 2078.33 70.8356 2059 70.8356L35.9999 70.8333C16.6699 70.8333 0.999878 55.1627 0.999878 35.8321Z" fill="#D6D7DB" fill-rule="evenodd"/></g></g><path d="M1153 306.001C1153 286.67 1168.67 271 1188 271L3211 271C3230.33 271 3246 286.67 3246 306.001L3246 306.001C3246 325.332 3230.33 341.002 3211 341.002L1188 341C1168.67 341 1153 325.329 1153 305.999Z" fill="#D6D7DB" fill-rule="evenodd"/><path d="M2138.79 379 2261.21 379 2440 2212 1960 2212Z" fill="#E5E6EA" fill-rule="evenodd" fill-opacity="0.301961"/><path d="M2202 300C2232.93 300 2258 329.868 2258 366.711L2258 373 2146 373 2146 366.711C2146 329.868 2171.07 300 2202 300Z" fill="#454D6B" fill-rule="evenodd"/><path d="M2202.5 300C2225.7 300 2245.6 316.856 2254.11 340.878L2257 358 2148 358 2150.89 340.878C2159.4 316.856 2179.3 300 2202.5 300Z" fill="#292E4C" fill-rule="evenodd"/><path d="M3064.59 350.461 3173.72 403.31 2905.59 2294.11 2438.19 2182.11Z" fill="#E5E6EA" fill-rule="evenodd" fill-opacity="0.301961"/><path d="M3147.33 302.242C3176.18 313.618 3188.54 350.797 3174.94 385.284L3172.61 391.17 3068.15 349.976 3070.47 344.09C3084.07 309.603 3118.48 290.867 3147.33 302.242Z" fill="#454D6B" fill-rule="evenodd"/><path d="M3147.33 302.243C3168.96 310.774 3181.33 333.82 3180.42 359.359L3176.81 376.397 3075.17 336.313 3084.16 321.402C3100.93 302.117 3125.69 293.711 3147.33 302.243Z" fill="#292E4C" fill-rule="evenodd"/><path d="M181.96 0 0 1923.4 480.63 1923.4 301.141 26.1215Z" fill="#E5E6EA" fill-rule="evenodd" fill-opacity="0.301961" transform="matrix(-0.972469 0.233031 0.233031 0.972469 1513.17 309.899)"/><path d="M73.4517 56.1458C73.4517 87.1544 43.3991 112.292 6.32753 112.292L0 112.292 0 0 6.32753 0C43.3991 0 73.4517 25.1372 73.4517 56.1458Z" fill="#454D6B" fill-rule="evenodd" transform="matrix(-0.366848 -0.930281 -0.930281 0.366848 1331.85 349.976)"/><path d="M58.1679 54.6333C58.1679 77.89 41.2634 97.8437 17.1716 106.367L0 109.267 0 0 17.1716 2.89977C41.2634 11.4233 58.1679 31.3771 58.1679 54.6333Z" fill="#292E4C" fill-rule="evenodd" transform="matrix(-0.366848 -0.930281 -0.930281 0.366848 1324.83 336.313)"/><path d="M0 159 126.529 0 875 0 748.472 159Z" fill="#CA684B" fill-rule="evenodd" transform="matrix(-1 0 0 1 3303 1852)"/><rect x="2567" y="2011" width="736" height="323" fill="#974A2F"/><path d="M2710 1939.5C2710 1927.07 2793.95 1917 2897.5 1917 3001.05 1917 3085 1927.07 3085 1939.5 3085 1951.93 3001.05 1962 2897.5 1962 2793.95 1962 2710 1951.93 2710 1939.5Z" fill="#383F49" fill-rule="evenodd" fill-opacity="0.160784"/><path d="M183.974-0.663784 183.974 21.434C183.974 21.434 118.591 37.53 118.591 148.336L64.3582 148.336C64.3582 37.53-1.02625 21.434-1.02625 21.434L-1.02625-0.663784 183.974-0.663784" fill="#DC9A58" fill-rule="evenodd" transform="matrix(1 0 0 -1 2805 1805)"/><path d="M56.0726 127.011C56.3326 123.963 56.6498 121.003 57.0178 118.129 67.6665 34.5807 120.88 21.5176 120.88 21.5176L120.88-0.626446 107.126-0.626446 107.126 21.5176C107.126 21.5176 56.6971 33.8967 44.1987 111.629 39.146 109.908 33.7761 108.983 28.2103 108.983 17.3996 108.983 7.32803 112.477-1.12019 118.498-0.759024 121.372-0.448421 124.329-0.191948 127.373L56.0726 127.011" fill="#D88E44" fill-rule="evenodd" transform="matrix(1 0 0 -1 2868 1805)"/><path d="M105.979 59.0581C105.979 25.9213 82.0252-0.942194 52.4784-0.942194 22.9317-0.942194-1.02099 25.9213-1.02099 59.0581L105.979 59.0581" fill="#DC9A58" fill-rule="evenodd" transform="matrix(1 0 0 -1 2844 1686)"/><path d="M105.979 60.0682C105.979 54.0433 105.165 48.0055 103.525 42.1892 99.5752 28.2102 91.1142 16.4558 80.0423 9.03771 71.992 3.64196 62.5628-0.932084 52.4791-0.932084 42.5491-0.932084 32.7927 2.76248 25.2833 8.7938 30.5589 6.64001 36.2585 5.46195 42.2052 5.46195 61.5043 5.46195 78.2025 17.8585 86.216 35.8883 75.3344 32.8164 64.0487 31.2565 52.4791 31.2565 34.6424 31.2565 17.4801 34.9638 1.4331 42.1892-0.162898 47.8322-1.02098 53.8379-1.02098 60.0682L105.979 60.0682" fill="#D88E44" fill-rule="evenodd" transform="matrix(1 0 0 -1 2844 1687)"/><path d="M323.975 255.123C323.975 91.8847 251.221-1.47887 161.475-1.47887 71.7288-1.47887-1.02477 91.8847-1.02477 255.123L-1.02477 282.521 323.975 282.521 323.975 255.123" fill="#E2A76B" fill-rule="evenodd" transform="matrix(1 0 0 -1 2735 1649)"/><path d="M93.0236 1.91441C97.484-0.147968 101.791-1.39446 106.766-1.63857 108.96-1.7446 111.15-1.42661 113.312-1.10852 114.728-0.896464 116.111-0.565596 117.451-0.0772814 124.501 2.50546 131.068 7.08 134.294 13.8198 136.191 17.7808 137.188 21.4815 137.488 25.8601 137.72 29.2428 137.238 32.8054 136.302 36.0629 135.241 39.7604 133.388 43.4161 131.307 46.7025 123.957 58.3124 112.91 67.4679 101.976 75.8845 94.4273 81.6958 86.6846 87.2727 79.0167 92.9394 79.7484 92.3966 80.48 91.8568 81.2118 91.3171 68.5641 100.665 55.9907 110.264 45.036 121.447 42.0182 124.524 39.1375 127.727 36.4381 131.065 37.0036 130.365 37.5687 129.667 38.1342 128.967 33.1647 135.145 28.8524 141.804 25.654 148.987 26.0184 148.162 26.383 147.336 26.7474 146.507 24.1836 152.322 22.3908 158.413 21.4966 164.664 21.6259 163.745 21.7551 162.826 21.884 161.905 21.14 167.273 20.9854 172.727 21.7161 178.102 21.5869 177.183 21.4576 176.264 21.3287 175.342 21.9801 179.901 23.2447 184.34 25.1033 188.584 24.7386 187.758 24.3743 186.93 24.0096 186.104 25.8538 190.238 28.2335 194.119 31.103 197.675 30.5375 196.975 29.9719 196.275 29.4068 195.574 32.21 199.008 35.4317 202.089 39.0193 204.772 38.2875 204.232 37.5559 203.689 36.8239 203.149 40.5435 205.893 44.5982 208.17 48.9189 209.934 48.0552 209.587 47.1911 209.237 46.3275 208.89 50.762 210.667 55.404 211.878 60.1676 212.501 59.2065 212.375 58.2451 212.253 57.2841 212.128 61.3536 212.636 65.4859 212.777 69.561 212.253 68.6001 212.379 67.6386 212.501 66.6776 212.626 69.8119 212.192 72.8558 211.392 75.7783 210.223 74.9147 210.573 74.0509 210.92 73.1873 211.27 76.0324 210.104 78.6987 208.614 81.1624 206.821 80.4307 207.364 79.6991 207.904 78.967 208.443 81.4874 206.574 83.7372 204.421 85.6916 202.012 85.1265 202.712 84.561 203.413 83.9955 204.113 85.8695 201.755 87.4253 199.204 88.6449 196.483 88.2803 197.309 87.9159 198.135 87.5512 198.96 88.7708 196.165 89.6089 193.252 90.0606 190.254 89.9313 191.173 89.8021 192.095 89.6731 193.014 89.8977 191.408 90.0125 189.798 90.0209 188.179 90.0347 185.513 91.2215 182.734 93.1982 180.842 95.0797 179.043 98.1664 177.687 100.868 177.803 106.721 178.054 111.745 182.365 111.716 188.179 111.654 200.12 106.651 211.81 97.7684 220.23 88.8944 228.64 76.6322 233.414 64.1423 233.34 40.9813 233.202 18.8579 220.786 7.6797 201.321 2.09772 191.604-0.716905 180.553-0.434818 169.467-0.217247 160.909 1.37985 152.248 4.48992 144.214 10.7481 128.045 21.6349 114.216 34.38 102.175 46.8356 90.4081 60.868 80.3016 74.7236 70.1181 76.3055 68.9553 77.8867 67.7923 79.4653 66.6262 78.7336 67.1691 78.0019 67.7088 77.2702 68.2485 86.7943 61.2067 96.4018 54.0751 104.729 45.7227 106.745 43.7021 108.673 41.598 110.465 39.3909 109.9 40.0913 109.335 40.7916 108.769 41.4918 111.417 38.212 113.76 34.6944 115.454 30.8683 115.09 31.6971 114.725 32.5228 114.361 33.3483 115.168 31.5011 115.711 29.5865 116.011 27.6045 115.881 28.5232 115.752 29.4451 115.623 30.3639 115.89 28.3658 115.902 26.3709 115.639 24.3727 115.768 25.2915 115.897 26.2102 116.027 27.1289 115.768 25.4103 115.313 23.7559 114.621 22.1497 114.986 22.9753 115.35 23.8009 115.715 24.6297 115.101 23.2836 114.342 22.034 113.405 20.8711 113.97 21.5715 114.535 22.2718 115.101 22.972 114.115 21.8092 112.998 20.7812 111.761 19.8656 112.493 20.4054 113.225 20.945 113.956 21.4879 112.66 20.5595 111.278 19.7886 109.798 19.1653 110.662 19.5155 111.525 19.8624 112.389 20.2126 110.826 19.5862 109.219 19.1525 107.544 18.9051 108.506 19.0304 109.467 19.1525 110.428 19.2778 108.639 19.0496 106.864 19.0528 105.075 19.2713 106.036 19.1492 106.998 19.024 107.959 18.9019 106.148 19.1621 104.415 19.6343 102.72 20.296 103.583 19.9459 104.447 19.599 105.311 19.2488 104.86 19.4351 104.416 19.6311 103.973 19.8367 101.312 21.0671 98.5495 21.655 95.615 20.8808 93.0989 20.219 90.3718 18.359 89.1321 16.1135 87.802 13.7041 87.1355 10.7872 88.0388 8.11763 88.8695 5.66019 90.5042 3.08054 93.0236 1.91441L93.0236 1.91441" fill="#AB6C2F" fill-rule="evenodd" transform="matrix(1 0 0 -1 2622 1574)"/><path d="M28.8117 40.0515C20.9631 47.4123 10.4656 51.9579-0.502427 52.8646 0.953102 52.9663 2.41187 53.0236 3.87742 53.0331 16.3816 53.1063 28.6538 48.3793 37.5378 40.0515 46.4285 31.7143 51.4369 20.1387 51.4974 8.31499 51.5277 2.55743 46.4991-1.71148 40.6403-1.95952 39.1748-2.02003 37.6016-1.65741 36.163-1.02756 40.0084 0.559747 42.7983 4.02383 42.7748 8.31499 42.7108 20.1387 37.7025 31.7143 28.8117 40.0515" fill="#6E4714" fill-rule="evenodd" transform="matrix(1 0 0 -1 2683 1394)"/><path d="M124.471 25.8614C124.168 21.4887 123.171 17.7928 121.275 13.837 118.051 7.10625 111.484 2.53776 104.434-0.0384867 103.094-0.529347 101.715-0.859777 100.298-1.06837 98.1357-1.38912 95.9467-1.70679 93.7509-1.59771 92.5658-1.53988 91.4176-1.42442 90.2962-1.25442 90.7259-1.1934 91.1557-1.13248 91.582-1.06837 92.9989-0.859777 94.3822-0.529347 95.7217-0.0384867 102.769 2.53776 109.336 7.10625 112.562 13.837 114.459 17.7928 115.453 21.4887 115.755 25.8614 115.987 29.2397 115.503 32.7976 114.57 36.0507 113.509 39.7434 111.656 43.3943 109.574 46.6764 102.225 58.2709 91.1792 67.4142 80.2477 75.8198 73.1032 81.3123 65.7876 86.5962 58.5257 91.9443 46.2042 101.056 33.9936 110.436 23.3172 121.322 20.6784 124.01 18.1436 126.795 15.7431 129.682 15.9646 129.397 16.1895 129.115 16.4179 128.832 15.8539 129.532 15.2865 130.231 14.7224 130.927 15.048 130.523 15.3771 130.125 15.7095 129.724 11.2945 135.316 7.43023 141.299 4.44896 147.706 2.37411 152.682 0.859897 157.851-0.00958433 163.144-0.543399 167.616-0.647535 172.14-0.150657 176.619 0.463817 180.186 1.46425 183.677 2.83405 187.049 4.38855 190.321 6.28872 193.427 8.50798 196.327 10.8413 199.047 13.4466 201.537 16.3004 203.767 19.332 205.881 22.5685 207.693 25.9863 209.176 29.5485 210.497 33.2348 211.46 37.0051 212.047 40.0804 212.361 43.1826 212.448 46.2646 212.175 45.8315 212.252 45.3952 212.32 44.9552 212.381 45.4857 212.313 46.0162 212.243 46.5433 212.175 46.7482 212.201 46.9563 212.23 47.161 212.255 46.963 212.23 46.7649 212.204 46.5702 212.172 46.6407 212.162 46.7112 212.156 46.7783 212.146 46.7482 212.143 46.7179 212.14 46.6911 212.137 46.644 212.134 46.6004 212.13 46.5568 212.124 46.2748 212.102 45.9927 212.076 45.7107 212.044 41.9437 211.457 38.2574 210.497 34.6986 209.176 31.2809 207.69 28.0343 205.878 24.9993 203.757 22.1555 201.53 19.5536 199.044 17.2236 196.327 15.0111 193.439 13.1209 190.353 11.5699 187.097 10.18 183.693 9.17274 180.164 8.55493 176.558 8.06818 172.095 8.17554 167.588 8.70602 163.131 9.57561 157.844 11.0864 152.679 13.1646 147.706 16.1459 141.299 20.0103 135.316 24.4252 129.724 24.4352 129.711 24.4453 129.699 24.4587 129.682 26.8558 126.795 29.3906 124.01 32.0329 121.322 42.5447 110.6 54.5539 101.338 66.684 92.3549 74.1273 86.8657 81.6376 81.4533 88.9634 75.8198 99.8949 67.4142 110.941 58.2709 118.29 46.6764 120.368 43.3943 122.221 39.7434 123.282 36.0507 124.219 32.7976 124.702 29.2397 124.471 25.8614" fill="#6E4714" fill-rule="evenodd" transform="matrix(1 0 0 -1 2635 1574)"/><path d="M42.9236 1.91441C38.4643-0.147968 34.1561-1.39446 29.183-1.63857 26.9869-1.7446 24.7976-1.42661 22.635-1.10852 21.218-0.896464 19.8378-0.565596 18.4981-0.0772814 11.4464 2.50546 4.8783 7.08 1.65472 13.8198-0.242558 17.7808-1.23982 21.4815-1.54205 25.8601-1.77373 29.2428-1.29023 32.8054-0.353389 36.0629 0.707748 39.7604 2.56129 43.4161 4.63994 46.7025 11.9904 58.3124 23.0379 67.4679 33.9714 75.8845 41.52 81.6958 49.2634 87.2727 56.9296 92.9394 56.2009 92.3966 55.4689 91.8568 54.7368 91.3171 67.3828 100.665 79.9582 110.264 90.9117 121.447 93.9306 124.524 96.8117 127.727 99.5081 131.065 98.9439 130.365 98.3799 129.667 97.8124 128.967 102.782 135.145 107.094 141.804 110.294 148.987 109.928 148.162 109.565 147.336 109.199 146.507 111.765 152.322 113.558 158.413 114.451 164.664 114.323 163.745 114.192 162.826 114.065 161.905 114.807 167.273 114.961 172.727 114.233 178.102 114.36 177.183 114.491 176.264 114.619 175.342 113.967 179.901 112.701 184.34 110.844 188.584 111.207 187.758 111.573 186.93 111.939 186.104 110.092 190.238 107.715 194.119 104.844 197.675 105.411 196.975 105.975 196.275 106.54 195.574 103.736 199.008 100.515 202.089 96.9292 204.772 97.6613 204.232 98.3932 203.689 99.1219 203.149 95.4047 205.893 91.3483 208.17 87.0301 209.934 87.893 209.587 88.756 209.237 89.6189 208.89 85.1865 210.667 80.5425 211.878 75.781 212.501 76.7414 212.375 77.7017 212.253 78.662 212.128 74.5956 212.636 70.462 212.777 66.3855 212.253 67.3492 212.379 68.3096 212.501 69.2699 212.626 66.137 212.192 63.0914 211.392 60.17 210.223 61.033 210.573 61.8959 210.92 62.7589 211.27 59.9147 210.104 57.2485 208.614 54.7839 206.821 55.5158 207.364 56.2478 207.904 56.9799 208.443 54.4615 206.574 52.2117 204.421 50.2573 202.012 50.8215 202.712 51.3857 203.413 51.9531 204.113 50.0794 201.755 48.5213 199.204 47.3024 196.483 47.6684 197.309 48.031 198.135 48.3971 198.96 47.1781 196.165 46.3386 193.252 45.8887 190.254 46.0163 191.173 46.1439 192.095 46.2748 193.014 46.0498 191.408 45.9357 189.798 45.9256 188.179 45.9122 185.513 44.7269 182.734 42.749 180.842 40.8685 179.043 37.7826 177.687 35.0795 177.803 29.2266 178.054 24.2031 182.365 24.2334 188.179 24.2938 200.12 29.2972 211.81 38.1789 220.23 47.0539 228.64 59.3137 233.414 71.8051 233.34 94.9648 233.202 117.09 220.786 128.269 201.321 133.85 191.604 136.664 180.553 136.381 169.467 136.163 160.909 134.568 152.248 131.459 144.214 125.2 128.045 114.313 114.216 101.566 102.175 89.1119 90.4081 75.0791 80.3016 61.2243 70.1181 59.6428 68.9553 58.0612 67.7923 56.4829 66.6262 57.2149 67.1691 57.947 67.7088 58.679 68.2485 49.1526 61.2067 39.5456 54.0751 31.2179 45.7227 29.2031 43.7021 27.2757 41.598 25.4826 39.3909 26.0467 40.0913 26.6142 40.7916 27.1783 41.4918 24.5289 38.212 22.1885 34.6944 20.4927 30.8683 20.8587 31.6971 21.2213 32.5228 21.5873 33.3483 20.7781 31.5011 20.2374 29.5865 19.9387 27.6045 20.0662 28.5232 20.1938 29.4451 20.3248 30.3639 20.0562 28.3658 20.046 26.3709 20.308 24.3727 20.1803 25.2915 20.0494 26.2102 19.9219 27.1289 20.1803 25.4103 20.6337 23.7559 21.3254 22.1497 20.9627 22.9753 20.5967 23.8009 20.2341 24.6297 20.8452 23.2836 21.6041 22.034 22.5443 20.8711 21.9769 21.5715 21.4127 22.2718 20.8486 22.972 21.8325 21.8092 22.9507 20.7812 24.1864 19.8656 23.4543 20.4054 22.7224 20.945 21.9903 21.4879 23.2898 20.5595 24.6699 19.7886 26.1508 19.1653 25.2877 19.5155 24.4215 19.8624 23.5584 20.2126 25.1233 19.5862 26.7283 19.1525 28.4039 18.9051 27.4435 19.0304 26.4799 19.1525 25.5195 19.2778 27.3092 19.0496 29.0822 19.0528 30.8721 19.2713 29.9116 19.1492 28.9513 19.024 27.9876 18.9019 29.8008 19.1621 31.5335 19.6343 33.2293 20.296 32.363 19.9459 31.4999 19.599 30.6369 19.2488 31.087 19.4351 31.5302 19.6311 31.9734 19.8367 34.6362 21.0671 37.3998 21.655 40.3313 20.8808 42.8497 20.219 45.5765 18.359 46.8154 16.1135 48.1453 13.7041 48.8134 10.7872 47.9102 8.11763 47.0774 5.66019 45.4421 3.08054 42.9236 1.91441L42.9236 1.91441" fill="#AB6C2F" fill-rule="evenodd" transform="matrix(1 0 0 -1 3034 1574)"/><path d="M276.909 282.521 276.909 255.123C276.909 91.8847 204.115-1.47887 114.319-1.47887 69.1955-1.47887 28.3669 22.0969-1.09094 66.2689 26.4288 31.3959 62.318 12.9074 101.577 12.9074 188.247 12.9074 258.507 103.021 258.507 260.58L258.507 282.521 276.909 282.521" fill="#D88E44" fill-rule="evenodd" transform="matrix(1 0 0 -1 2782 1649)"/><path d="M23.1117 8.5429C22.2948 6.07328 20.6909 3.48107 18.2207 2.30922 13.8466 0.23671 9.62081-1.01591 4.7429-1.258 2.65469-1.36455 0.576408-1.06758-1.48212-0.754346 1.67651-0.170129 4.63746 0.872597 7.66772 2.30922 10.138 3.48107 11.7419 6.07328 12.5555 8.5429 13.4415 11.2256 12.7894 14.1568 11.4851 16.578 10.6748 18.0791 9.21904 19.4091 7.61173 20.326 7.59187 20.3389 7.57539 20.3486 7.55901 20.355 10.1478 21.5689 12.8321 22.1403 15.6778 21.3687 18.1481 20.7037 20.8226 18.8345 22.0379 16.578 23.3423 14.1568 23.9976 11.2256 23.1117 8.5429" fill="#6E4714" fill-rule="evenodd" transform="matrix(1 0 0 -1 3059 1574)"/><path d="M125.367 149.194C125.149 140.606 123.554 131.914 120.446 123.851 114.189 107.628 103.306 93.7452 90.5634 81.6617 78.1131 69.8556 64.085 59.7098 50.2348 49.4898 48.7914 48.4227 47.3445 47.3587 45.9045 46.2884 45.8911 46.2787 45.8777 46.269 45.8642 46.2561 45.7401 46.1658 45.6158 46.0756 45.4949 45.9853 36.7002 39.4407 27.9221 32.7444 20.2383 25.0069 18.5365 23.2951 16.8983 21.5219 15.3509 19.6778 13.3737 17.1179 11.6047 14.4162 10.1881 11.5372 10.1813 11.534 10.1813 11.5308 10.1813 11.5276 9.76508 10.4282 9.44282 9.30626 9.20454 8.16171 9.124 7.11074 9.12066 6.06298 9.19108 5.01191 9.35894 4.21565 9.57709 3.43221 9.84562 2.65838 10.1008 2.18456 10.3761 1.72676 10.6781 1.27857 11.1079 0.830493 11.561 0.404854 12.0343-0.00134434 12.1216-0.0593579 12.2089-0.114166 12.2996-0.165768 12.2828-0.168973 12.2625-0.175385 12.2458-0.1819 12.2324-0.185106 12.2156-0.188311 12.2021-0.194826 11.5744-0.397925 10.9501-0.646111 10.3324-0.929871 9.43948-1.23286 8.53654-1.48115 7.61337-1.67133 6.86817-1.71321 6.12297-1.71321 5.37778-1.67453 4.65605-1.52304 3.94445-1.33286 3.24286-1.10712 2.56808-0.775065 1.91688-0.407542 1.28248-0.00455008 0.809154 0.401648 0.352625 0.827184-0.0769853 1.27857-0.375775 1.72345-0.650984 2.18125-0.906166 2.64877-1.17804 3.42249-1.39629 4.21234-1.56404 5.01191-1.63457 6.06298-1.63123 7.11395-1.55069 8.16502-1.31575 9.30946-0.990042 10.4315-0.573783 11.5276-0.573783 11.5308-0.573783 11.534-0.567107 11.5372 0.849423 14.4162 2.61847 17.1179 4.59565 19.6778 6.14311 21.5219 7.78123 23.2951 9.4832 25.0069 17.2911 32.867 26.2236 39.6534 35.156 46.2948 36.596 47.362 38.0361 48.4259 39.4796 49.4898 53.3297 59.7098 67.3579 69.8556 79.8083 81.6617 92.5507 93.7452 103.433 107.628 109.687 123.851 112.796 131.914 114.393 140.606 114.612 149.194 114.894 160.32 112.081 171.411 106.498 181.163 96.2096 199.153 76.6361 211.146 55.5184 213.035 57.2706 213.219 59.0397 213.306 60.8121 213.296 83.964 213.158 106.082 200.697 117.257 181.163 122.836 171.411 125.649 160.32 125.367 149.194" fill="#6E4714" fill-rule="evenodd" transform="matrix(1 0 0 -1 3045 1554)"/><path d="M263.856 117.104 263.856-0.192379-1.14402-0.192379-1.14402 117.104C-1.14402 120.793 2.36337 123.808 6.6498 123.808L256.06 123.808C260.348 123.808 263.856 120.793 263.856 117.104" fill="#6C4438" fill-rule="evenodd" transform="matrix(1 0 0 -1 2764 1923)"/><path d="M22.4813 117.104 22.4813-0.192379 6.47858-0.192379 6.47858 117.104C6.47858 120.793 2.88217 123.808-1.51889 123.808L14.4799 123.808C18.8811 123.808 22.4813 120.793 22.4813 117.104" fill="#5B3A2F" fill-rule="evenodd" transform="matrix(1 0 0 -1 3005 1923)"/><path d="M309.859 20.2949 309.859 6.79644C309.859 3.08487 306.36 0.0455158 302.086 0.0455158L6.63403 0.0455158C2.35747 0.0455158-1.14122 3.08487-1.14122 6.79644L-1.14122 20.2949C-1.14122 24.0097 2.35747 27.0458 6.63403 27.0458L302.086 27.0458C306.36 27.0458 309.859 24.0097 309.859 20.2949" fill="#6C4438" fill-rule="evenodd" transform="matrix(1 0 0 -1 2741 1940)"/><path d="M21.4803 20.2949 21.4803 6.79644C21.4803 3.08487 18.0296 0.0455158 13.8148 0.0455158L-1.51976 0.0455158C2.69492 0.0455158 6.14569 3.08487 6.14569 6.79644L6.14569 20.2949C6.14569 24.0097 2.69492 27.0458-1.51976 27.0458L13.8148 27.0458C18.0296 27.0458 21.4803 24.0097 21.4803 20.2949" fill="#5B3A2F" fill-rule="evenodd" transform="matrix(1 0 0 -1 3029 1940)"/><path d="M185.856 53.1258 185.856 6.45542C185.856 2.78934 182.35-0.209563 178.063-0.209563L6.64785-0.209563C2.36251-0.209563-1.14366 2.78934-1.14366 6.45542L-1.14366 53.1258C-1.14366 56.7918 2.36251 59.7907 6.64785 59.7907L178.063 59.7907C182.35 59.7907 185.856 56.7918 185.856 53.1258" fill="#DC9A58" fill-rule="evenodd" transform="matrix(1 0 0 -1 2803 1886)"/><path d="M160.826 53.1258 160.826 6.45542C160.826 2.78934 157.329-0.209563 153.054-0.209563L-1.17452-0.209563C30.2154 0.322936 133.629 6.0545 133.629 59.7907L153.054 59.7907C157.329 59.7907 160.826 56.7918 160.826 53.1258" fill="#D88E44" fill-rule="evenodd" transform="matrix(1 0 0 -1 2828 1886)"/><path d="M-1.00638-0.239799-1.00638 27.0344C-1.00638 28.5386 0.419817 29.7606 2.17879 29.7606L71.994 29.7606C71.994 29.7606 16.5141 24.7605-1.00638-0.239799" fill="#E2AD78" fill-rule="evenodd" transform="matrix(1 0 0 -1 2811 1863)"/><path d="M-0.900807-0.336702-0.900807 26.9372C-0.900807 28.4446 0.525 29.6633 2.28394 29.6633L72.0991 29.6633C72.0991 29.6633 16.6193 24.6633-0.900807-0.336702" fill="#B78575" fill-rule="evenodd" transform="matrix(1 0 0 -1 2773 1836)"/><path d="M86.262-1.51831C65.0919-1.51831 6.37729 65.7234-0.738062 224.482L32.2619 224.482C38.0906 30.2379 86.262-1.51831 86.262-1.51831" fill="#E2AD78" fill-rule="evenodd" transform="matrix(1 0 0 -1 2752 1609)"/><path d="M-0.907915-0.59584C-0.907915-0.59584 45.0923 28.857 45.0923 71.4044L45.0923-0.59584-0.907915-0.59584" fill="#E2AD78" fill-rule="evenodd" transform="matrix(1 0 0 -1 2827 1785)"/><path d="M39.636 12.7546 39.636 12.7546C39.636 12.7546 35.0264 14.0374 25.6022 12.1938 14.1089 9.94409-0.363952-2.02308-0.363952-2.02308 7.05493 12.1938 23.9327 20.9766 31.0548 20.9766L31.0548 20.9766C35.794 20.9766 39.636 17.2959 39.636 12.7546" fill="#E2AD78" fill-rule="evenodd" transform="matrix(1 0 0 -1 2639 1370)"/><path d="M1100 1886 1226.53 1727 2013 1727 1886.47 1886Z" fill="#CBCCCF" fill-rule="evenodd"/><rect x="1100" y="1886" width="736" height="448" fill="#B5B6BB"/><path d="M1321 1814.5C1321 1802.07 1405.17 1792 1509 1792 1612.83 1792 1697 1802.07 1697 1814.5 1697 1826.93 1612.83 1837 1509 1837 1405.17 1837 1321 1826.93 1321 1814.5Z" fill="#383F49" fill-rule="evenodd" fill-opacity="0.160784"/><path d="M183.974-0.668237 183.974 21.5778C183.974 21.5778 118.591 37.7818 118.591 149.332L64.3582 149.332C64.3582 37.7818-1.02625 21.5778-1.02625 21.5778L-1.02625-0.668237 183.974-0.668237" fill="#DCDDDF" fill-rule="evenodd" transform="matrix(1 0 0 -1 1416 1681)"/><path d="M55.613 128.003C55.8708 124.932 56.1854 121.948 56.5504 119.051 67.1119 34.8509 119.889 21.6857 119.889 21.6857L119.889-0.63134 106.248-0.63134 106.248 21.6857C106.248 21.6857 56.2323 34.1615 43.8364 112.501 38.8251 110.767 33.4992 109.835 27.9791 109.835 17.257 109.835 7.26797 113.356-1.111 119.424-0.752803 122.32-0.444745 125.301-0.190375 128.369L55.613 128.003" fill="#C1C4C7" fill-rule="evenodd" transform="matrix(1 0 0 -1 1480 1681)"/><path d="M106.969 59.0577C106.969 25.9211 82.7916-0.942188 52.9687-0.942188 23.1459-0.942188-1.03053 25.9211-1.03053 59.0577L106.969 59.0577" fill="#DCDDDF" fill-rule="evenodd" transform="matrix(1 0 0 -1 1455 1561)"/><path d="M106.969 61.0526C106.969 54.9289 106.147 48.7922 104.492 42.8806 100.505 28.6726 91.9655 16.7254 80.7901 9.18582 72.6646 3.70164 63.1473-0.947359 52.9695-0.947359 42.9466-0.947359 33.099 2.80775 25.5195 8.93791 30.8444 6.74882 36.5973 5.55147 42.5995 5.55147 62.0789 5.55147 78.9331 18.1511 87.0215 36.4764 76.0382 33.3542 64.6471 31.7687 52.9695 31.7687 34.966 31.7687 17.6434 35.5368 1.44649 42.8806-0.16442 48.6161-1.03052 54.7202-1.03052 61.0526L106.969 61.0526" fill="#C1C4C7" fill-rule="evenodd" transform="matrix(1 0 0 -1 1455 1563)"/><path d="M324.972 255.123C324.972 91.8847 251.994-1.47887 161.971-1.47887 71.9495-1.47887-1.02792 91.8847-1.02792 255.123L-1.02792 282.521 324.972 282.521 324.972 255.123" fill="#DBDCDE" fill-rule="evenodd" transform="matrix(1 0 0 -1 1346 1524)"/><path d="M93.0236 1.91441C97.484-0.147968 101.791-1.39446 106.766-1.63857 108.96-1.7446 111.15-1.42661 113.312-1.10852 114.728-0.896462 116.111-0.565596 117.451-0.0772812 124.501 2.50546 131.068 7.07999 134.294 13.8197 136.191 17.7808 137.188 21.4815 137.488 25.8601 137.72 29.2427 137.238 32.8054 136.302 36.0628 135.241 39.7604 133.388 43.4161 131.307 46.7024 123.957 58.3123 112.91 67.4678 101.976 75.8844 94.4273 81.6956 86.6846 87.2726 79.0167 92.9392 79.7484 92.3964 80.48 91.8567 81.2118 91.3169 68.5641 100.665 55.9907 110.264 45.036 121.447 42.0182 124.524 39.1375 127.727 36.4381 131.065 37.0036 130.364 37.5687 129.667 38.1342 128.967 33.1647 135.145 28.8524 141.804 25.654 148.987 26.0184 148.161 26.383 147.336 26.7474 146.507 24.1836 152.322 22.3908 158.412 21.4966 164.664 21.6259 163.745 21.7551 162.826 21.884 161.904 21.14 167.272 20.9854 172.727 21.7161 178.101 21.5869 177.183 21.4576 176.264 21.3287 175.342 21.9801 179.9 23.2447 184.34 25.1033 188.584 24.7386 187.758 24.3743 186.929 24.0096 186.104 25.8538 190.238 28.2335 194.119 31.103 197.675 30.5375 196.975 29.9719 196.274 29.4068 195.574 32.21 199.008 35.4317 202.089 39.0193 204.771 38.2875 204.232 37.5559 203.689 36.8239 203.149 40.5435 205.892 44.5982 208.17 48.9189 209.934 48.0552 209.587 47.1911 209.237 46.3275 208.89 50.762 210.666 55.404 211.877 60.1676 212.5 59.2065 212.375 58.2451 212.253 57.2841 212.128 61.3536 212.635 65.4859 212.777 69.561 212.253 68.6001 212.378 67.6386 212.5 66.6776 212.626 69.8119 212.192 72.8558 211.392 75.7783 210.223 74.9147 210.573 74.0509 210.92 73.1873 211.27 76.0324 210.104 78.6987 208.613 81.1624 206.821 80.4307 207.364 79.6991 207.903 78.967 208.443 81.4874 206.573 83.7372 204.421 85.6916 202.012 85.1265 202.712 84.561 203.412 83.9955 204.113 85.8695 201.755 87.4253 199.204 88.6449 196.483 88.2803 197.309 87.9159 198.134 87.5512 198.96 88.7708 196.165 89.6089 193.251 90.0606 190.254 89.9313 191.173 89.8021 192.095 89.6731 193.014 89.8977 191.407 90.0125 189.798 90.0209 188.179 90.0347 185.513 91.2215 182.734 93.1982 180.842 95.0797 179.043 98.1664 177.687 100.868 177.803 106.721 178.053 111.745 182.364 111.716 188.179 111.654 200.12 106.651 211.81 97.7684 220.23 88.8944 228.64 76.6322 233.414 64.1423 233.34 40.9813 233.201 18.8579 220.785 7.6797 201.321 2.09772 191.603-0.716905 180.553-0.434818 169.466-0.217247 160.908 1.37985 152.248 4.48992 144.213 10.7481 128.045 21.6349 114.215 34.38 102.175 46.8356 90.4079 60.868 80.3015 74.7236 70.118 76.3055 68.9552 77.8867 67.7922 79.4653 66.6261 78.7336 67.169 78.0019 67.7087 77.2702 68.2484 86.7943 61.2066 96.4018 54.075 104.729 45.7227 106.745 43.702 108.673 41.5979 110.465 39.3909 109.9 40.0912 109.335 40.7915 108.769 41.4918 111.417 38.212 113.76 34.6943 115.454 30.8683 115.09 31.6971 114.725 32.5227 114.361 33.3483 115.168 31.5011 115.711 29.5865 116.011 27.6044 115.881 28.5232 115.752 29.4451 115.623 30.3639 115.89 28.3657 115.902 26.3708 115.639 24.3726 115.768 25.2915 115.897 26.2102 116.027 27.1289 115.768 25.4103 115.313 23.7558 114.621 22.1496 114.986 22.9753 115.35 23.8009 115.715 24.6296 115.101 23.2836 114.342 22.034 113.405 20.8711 113.97 21.5715 114.535 22.2717 115.101 22.972 114.115 21.8092 112.998 20.7811 111.761 19.8656 112.493 20.4053 113.225 20.945 113.956 21.4879 112.66 20.5595 111.278 19.7885 109.798 19.1652 110.662 19.5155 111.525 19.8624 112.389 20.2125 110.826 19.5862 109.219 19.1525 107.544 18.9051 108.506 19.0303 109.467 19.1525 110.428 19.2778 108.639 19.0496 106.864 19.0528 105.075 19.2713 106.036 19.1492 106.998 19.024 107.959 18.9019 106.148 19.162 104.415 19.6343 102.72 20.296 103.583 19.9459 104.447 19.5989 105.311 19.2488 104.86 19.4351 104.416 19.6311 103.973 19.8367 101.312 21.0671 98.5495 21.6549 95.615 20.8808 93.0989 20.2189 90.3718 18.3589 89.1321 16.1134 87.802 13.7041 87.1355 10.7872 88.0388 8.11762 88.8695 5.66018 90.5042 3.08053 93.0236 1.91441L93.0236 1.91441" fill="#6A767C" fill-rule="evenodd" transform="matrix(1 0 0 -1 1234 1449)"/><path d="M28.8119 40.7797C20.9632 48.2744 10.4656 52.9026-0.50243 53.8258 0.953108 53.9294 2.41188 53.9877 3.87745 53.9974 16.3817 54.0719 28.654 49.259 37.538 40.7797 46.4288 32.2909 51.4372 20.5048 51.4977 8.46618 51.528 2.60393 46.4994-1.7426 40.6406-1.99515 39.175-2.05676 37.6019-1.68754 36.1632-1.04625 40.0087 0.569925 42.7986 4.097 42.7751 8.46618 42.7111 20.5048 37.7028 32.2909 28.8119 40.7797" fill="#5A6368" fill-rule="evenodd" transform="matrix(1 0 0 -1 1294 1270)"/><path d="M124.47 25.8614C124.168 21.4886 123.171 17.7928 121.274 13.837 118.051 7.10624 111.484 2.53775 104.434-0.0384867 103.094-0.529346 101.714-0.859775 100.297-1.06836 98.1354-1.38912 95.9464-1.70679 93.7506-1.59771 92.5655-1.53988 91.4173-1.42442 90.296-1.25442 90.7257-1.1934 91.1554-1.13248 91.5818-1.06836 92.9986-0.859775 94.3819-0.529346 95.7215-0.0384867 102.768 2.53775 109.335 7.10624 112.562 13.837 114.459 17.7928 115.453 21.4886 115.755 25.8614 115.986 29.2397 115.503 32.7975 114.569 36.0507 113.509 39.7433 111.655 43.3942 109.574 46.6763 102.225 58.2708 91.1789 67.4141 80.2474 75.8196 73.103 81.3121 65.7874 86.596 58.5255 91.9441 46.2041 101.055 33.9935 110.436 23.3171 121.322 20.6783 124.01 18.1435 126.795 15.743 129.682 15.9645 129.397 16.1895 129.114 16.4178 128.832 15.8538 129.531 15.2864 130.231 14.7224 130.927 15.048 130.523 15.3771 130.125 15.7094 129.724 11.2945 135.316 7.4302 141.299 4.44895 147.706 2.37411 152.682 0.859895 157.85-0.0095843 163.144-0.543398 167.616-0.647533 172.14-0.150657 176.618 0.463816 180.186 1.46424 183.676 2.83405 187.048 4.38853 190.321 6.2887 193.426 8.50795 196.326 10.8412 199.047 13.4466 201.537 16.3003 203.766 19.332 205.88 22.5684 207.693 25.9863 209.175 29.5484 210.497 33.2347 211.459 37.005 212.047 40.0803 212.361 43.1825 212.448 46.2645 212.175 45.8314 212.252 45.395 212.319 44.9551 212.38 45.4856 212.313 46.0161 212.242 46.5432 212.175 46.748 212.201 46.9562 212.23 47.1609 212.255 46.9629 212.23 46.7647 212.204 46.57 212.172 46.6406 212.162 46.7111 212.156 46.7782 212.146 46.748 212.143 46.7178 212.14 46.691 212.136 46.6439 212.133 46.6003 212.13 46.5567 212.124 46.2746 212.101 45.9926 212.076 45.7106 212.043 41.9436 211.456 38.2573 210.497 34.6985 209.175 31.2808 207.69 28.0342 205.877 24.9992 203.757 22.1555 201.53 19.5536 199.044 17.2235 196.326 15.0111 193.439 13.1209 190.353 11.5699 187.096 10.1799 183.692 9.17272 180.163 8.5549 176.557 8.06815 172.095 8.17552 167.587 8.70599 163.131 9.57558 157.844 11.0863 152.679 13.1645 147.706 16.1459 141.299 20.0102 135.316 24.4251 129.724 24.4351 129.711 24.4452 129.698 24.4586 129.682 26.8558 126.795 29.3905 124.01 32.0328 121.322 42.5446 110.6 54.5537 101.338 66.6838 92.3547 74.127 86.8655 81.6374 81.4532 88.9631 75.8196 99.8946 67.4141 110.94 58.2708 118.289 46.6763 120.368 43.3942 122.221 39.7433 123.282 36.0507 124.218 32.7975 124.702 29.2397 124.47 25.8614" fill="#5A6368" fill-rule="evenodd" transform="matrix(1 0 0 -1 1247 1449)"/><path d="M42.9236 1.91441C38.4643-0.147968 34.1561-1.39446 29.183-1.63857 26.9869-1.7446 24.7976-1.42661 22.635-1.10852 21.218-0.896462 19.8378-0.565596 18.4981-0.0772812 11.4464 2.50546 4.8783 7.07999 1.65472 13.8197-0.242558 17.7808-1.23982 21.4815-1.54205 25.8601-1.77373 29.2427-1.29023 32.8054-0.353389 36.0628 0.707748 39.7604 2.56129 43.4161 4.63994 46.7024 11.9904 58.3123 23.0379 67.4678 33.9714 75.8844 41.52 81.6956 49.2634 87.2726 56.9296 92.9392 56.2009 92.3964 55.4689 91.8567 54.7368 91.3169 67.3828 100.665 79.9582 110.264 90.9117 121.447 93.9306 124.524 96.8117 127.727 99.5081 131.065 98.9439 130.364 98.3799 129.667 97.8124 128.967 102.782 135.145 107.094 141.804 110.294 148.987 109.928 148.161 109.565 147.336 109.199 146.507 111.765 152.322 113.558 158.412 114.451 164.664 114.323 163.745 114.192 162.826 114.065 161.904 114.807 167.272 114.961 172.727 114.233 178.101 114.36 177.183 114.491 176.264 114.619 175.342 113.967 179.9 112.701 184.34 110.844 188.584 111.207 187.758 111.573 186.929 111.939 186.104 110.092 190.238 107.715 194.119 104.844 197.675 105.411 196.975 105.975 196.274 106.54 195.574 103.736 199.008 100.515 202.089 96.9292 204.771 97.6613 204.232 98.3932 203.689 99.1219 203.149 95.4047 205.892 91.3483 208.17 87.0301 209.934 87.893 209.587 88.756 209.237 89.6189 208.89 85.1865 210.666 80.5425 211.877 75.781 212.5 76.7414 212.375 77.7017 212.253 78.662 212.128 74.5956 212.635 70.462 212.777 66.3855 212.253 67.3492 212.378 68.3096 212.5 69.2699 212.626 66.137 212.192 63.0914 211.392 60.17 210.223 61.033 210.573 61.8959 210.92 62.7589 211.27 59.9147 210.104 57.2485 208.613 54.7839 206.821 55.5158 207.364 56.2478 207.903 56.9799 208.443 54.4615 206.573 52.2117 204.421 50.2573 202.012 50.8215 202.712 51.3857 203.412 51.9531 204.113 50.0794 201.755 48.5213 199.204 47.3024 196.483 47.6684 197.309 48.031 198.134 48.3971 198.96 47.1781 196.165 46.3386 193.251 45.8887 190.254 46.0163 191.173 46.1439 192.095 46.2748 193.014 46.0498 191.407 45.9357 189.798 45.9256 188.179 45.9122 185.513 44.7269 182.734 42.749 180.842 40.8685 179.043 37.7826 177.687 35.0795 177.803 29.2266 178.053 24.2031 182.364 24.2334 188.179 24.2938 200.12 29.2972 211.81 38.1789 220.23 47.0539 228.64 59.3137 233.414 71.8051 233.34 94.9648 233.201 117.09 220.785 128.269 201.321 133.85 191.603 136.664 180.553 136.381 169.466 136.163 160.908 134.568 152.248 131.459 144.213 125.2 128.045 114.313 114.215 101.566 102.175 89.1119 90.4079 75.0791 80.3015 61.2243 70.118 59.6428 68.9552 58.0612 67.7922 56.4829 66.6261 57.2149 67.169 57.947 67.7087 58.679 68.2484 49.1526 61.2066 39.5456 54.075 31.2179 45.7227 29.2031 43.702 27.2757 41.5979 25.4826 39.3909 26.0467 40.0912 26.6142 40.7915 27.1783 41.4918 24.5289 38.212 22.1885 34.6943 20.4927 30.8683 20.8587 31.6971 21.2213 32.5227 21.5873 33.3483 20.7781 31.5011 20.2374 29.5865 19.9387 27.6044 20.0662 28.5232 20.1938 29.4451 20.3248 30.3639 20.0562 28.3657 20.046 26.3708 20.308 24.3726 20.1803 25.2915 20.0494 26.2102 19.9219 27.1289 20.1803 25.4103 20.6337 23.7558 21.3254 22.1496 20.9627 22.9753 20.5967 23.8009 20.2341 24.6296 20.8452 23.2836 21.6041 22.034 22.5443 20.8711 21.9769 21.5715 21.4127 22.2717 20.8486 22.972 21.8325 21.8092 22.9507 20.7811 24.1864 19.8656 23.4543 20.4053 22.7224 20.945 21.9903 21.4879 23.2898 20.5595 24.6699 19.7885 26.1508 19.1652 25.2877 19.5155 24.4215 19.8624 23.5584 20.2125 25.1233 19.5862 26.7283 19.1525 28.4039 18.9051 27.4435 19.0303 26.4799 19.1525 25.5195 19.2778 27.3092 19.0496 29.0822 19.0528 30.8721 19.2713 29.9116 19.1492 28.9513 19.024 27.9876 18.9019 29.8008 19.162 31.5335 19.6343 33.2293 20.296 32.363 19.9459 31.4999 19.5989 30.6369 19.2488 31.087 19.4351 31.5302 19.6311 31.9734 19.8367 34.6362 21.0671 37.3998 21.6549 40.3313 20.8808 42.8497 20.2189 45.5765 18.3589 46.8154 16.1134 48.1453 13.7041 48.8134 10.7872 47.9102 8.11762 47.0774 5.66018 45.4421 3.08053 42.9236 1.91441L42.9236 1.91441" fill="#6A767C" fill-rule="evenodd" transform="matrix(1 0 0 -1 1646 1449)"/><path d="M277.905 282.521 277.905 255.123C277.905 91.8847 204.849-1.47887 114.731-1.47887 69.4444-1.47887 28.469 22.0969-1.09487 66.2689 26.5239 31.3959 62.5422 12.9074 101.943 12.9074 188.925 12.9074 259.437 103.021 259.437 260.58L259.437 282.521 277.905 282.521" fill="#C1C4C7" fill-rule="evenodd" transform="matrix(1 0 0 -1 1393 1524)"/><path d="M23.1117 8.5429C22.2948 6.07328 20.6909 3.48107 18.2207 2.30922 13.8466 0.23671 9.62081-1.01591 4.7429-1.258 2.65469-1.36455 0.576408-1.06758-1.48212-0.754346 1.67651-0.170129 4.63746 0.872597 7.66772 2.30922 10.138 3.48107 11.7419 6.07328 12.5555 8.5429 13.4415 11.2256 12.7894 14.1568 11.4851 16.578 10.6748 18.0791 9.21904 19.4091 7.61173 20.326 7.59187 20.3389 7.57539 20.3486 7.55901 20.355 10.1478 21.5689 12.8321 22.1403 15.6778 21.3687 18.1481 20.7037 20.8226 18.8345 22.0379 16.578 23.3423 14.1568 23.9976 11.2256 23.1117 8.5429" fill="#5A6368" fill-rule="evenodd" transform="matrix(1 0 0 -1 1671 1449)"/><path d="M125.367 149.194C125.149 140.605 123.554 131.914 120.446 123.85 114.189 107.627 103.306 93.745 90.5634 81.6616 78.1131 69.8555 64.085 59.7097 50.2348 49.4897 48.7914 48.4226 47.3445 47.3586 45.9045 46.2883 45.8911 46.2786 45.8777 46.269 45.8642 46.256 45.7401 46.1658 45.6158 46.0755 45.4949 45.9852 36.7002 39.4407 27.9221 32.7444 20.2383 25.0069 18.5365 23.295 16.8983 21.5218 15.3509 19.6777 13.3737 17.1179 11.6047 14.4162 10.1881 11.5372 10.1813 11.534 10.1813 11.5308 10.1813 11.5276 9.76508 10.4281 9.44282 9.30624 9.20454 8.16169 9.124 7.11073 9.12066 6.06297 9.19108 5.01191 9.35894 4.21564 9.57709 3.4322 9.84562 2.65838 10.1008 2.18455 10.3761 1.72675 10.6781 1.27857 11.1079 0.830492 11.561 0.404853 12.0343-0.00134434 12.1216-0.0593578 12.2089-0.114165 12.2996-0.165767 12.2828-0.168973 12.2625-0.175385 12.2458-0.1819 12.2324-0.185105 12.2156-0.188311 12.2021-0.194826 11.5744-0.397925 10.9501-0.64611 10.3324-0.929869 9.43948-1.23286 8.53654-1.48115 7.61337-1.67132 6.86817-1.71321 6.12297-1.71321 5.37778-1.67453 4.65605-1.52303 3.94445-1.33286 3.24286-1.10712 2.56808-0.775064 1.91688-0.407542 1.28248-0.00455007 0.809154 0.401647 0.352625 0.827183-0.0769853 1.27857-0.375775 1.72344-0.650984 2.18124-0.906166 2.64876-1.17804 3.42248-1.39629 4.21233-1.56404 5.01191-1.63457 6.06297-1.63123 7.11394-1.55069 8.165-1.31575 9.30945-0.990042 10.4315-0.573783 11.5276-0.573783 11.5308-0.573783 11.534-0.567107 11.5372 0.849423 14.4162 2.61847 17.1179 4.59565 19.6777 6.14311 21.5218 7.78123 23.295 9.4832 25.0069 17.2911 32.8669 26.2236 39.6534 35.156 46.2947 36.596 47.3619 38.0361 48.4258 39.4796 49.4897 53.3297 59.7097 67.3579 69.8555 79.8083 81.6616 92.5507 93.745 103.433 107.627 109.687 123.85 112.796 131.914 114.393 140.605 114.612 149.194 114.894 160.32 112.081 171.41 106.498 181.163 96.2096 199.152 76.6361 211.146 55.5184 213.035 57.2706 213.219 59.0397 213.306 60.8121 213.296 83.964 213.157 106.082 200.697 117.257 181.163 122.836 171.41 125.649 160.32 125.367 149.194" fill="#5A6368" fill-rule="evenodd" transform="matrix(1 0 0 -1 1657 1429)"/><path d="M262.86 117.104 262.86-0.192379-1.1397-0.192379-1.1397 117.104C-1.1397 120.793 2.35445 123.808 6.62471 123.808L255.094 123.808C259.366 123.808 262.86 120.793 262.86 117.104" fill="#42484C" fill-rule="evenodd" transform="matrix(1 0 0 -1 1376 1798)"/><path d="M21.5445 117.104 21.5445-0.192379 6.20863-0.192379 6.20863 117.104C6.20863 120.793 2.76207 123.808-1.4556 123.808L13.8765 123.808C18.0943 123.808 21.5445 120.793 21.5445 117.104" fill="#363B3E" fill-rule="evenodd" transform="matrix(1 0 0 -1 1617 1798)"/><path d="M310.855 20.2949 310.855 6.79644C310.855 3.08487 307.345 0.0455158 303.057 0.0455158L6.65536 0.0455158C2.36505 0.0455158-1.14489 3.08487-1.14489 6.79644L-1.14489 20.2949C-1.14489 24.0097 2.36505 27.0458 6.65536 27.0458L303.057 27.0458C307.345 27.0458 310.855 24.0097 310.855 20.2949" fill="#42484C" fill-rule="evenodd" transform="matrix(1 0 0 -1 1352 1815)"/><path d="M22.4142 20.2949 22.4142 6.79644C22.4142 3.08487 18.8135 0.0455158 14.4155 0.0455158L-1.58584 0.0455158C2.81209 0.0455158 6.41291 3.08487 6.41291 6.79644L6.41291 20.2949C6.41291 24.0097 2.81209 27.0458-1.58584 27.0458L14.4155 27.0458C18.8135 27.0458 22.4142 24.0097 22.4142 20.2949" fill="#363B3E" fill-rule="evenodd" transform="matrix(1 0 0 -1 1640 1815)"/><path d="M184.862 53.1258 184.862 6.45542C184.862 2.78934 181.375-0.209563 177.111-0.209563L6.6123-0.209563C2.34988-0.209563-1.13755 2.78934-1.13755 6.45542L-1.13755 53.1258C-1.13755 56.7918 2.34988 59.7907 6.6123 59.7907L177.111 59.7907C181.375 59.7907 184.862 56.7918 184.862 53.1258" fill="#DCDDDF" fill-rule="evenodd" transform="matrix(1 0 0 -1 1415 1761)"/><path d="M160.826 53.1258 160.826 6.45542C160.826 2.78934 157.329-0.209563 153.054-0.209563L-1.17452-0.209563C30.2154 0.322936 133.629 6.0545 133.629 59.7907L153.054 59.7907C157.329 59.7907 160.826 56.7918 160.826 53.1258" fill="#C1C4C7" fill-rule="evenodd" transform="matrix(1 0 0 -1 1439 1761)"/><path d="M-1.00638-0.239796-1.00638 27.0341C-1.00638 28.5383 0.419814 29.7602 2.17878 29.7602L71.9936 29.7602C71.9936 29.7602 16.514 24.7602-1.00638-0.239796" fill="#E9EAEB" fill-rule="evenodd" transform="matrix(1 0 0 -1 1422 1738)"/><path d="M-0.900811-0.336702-0.900811 26.9372C-0.900811 28.4446 0.525002 29.6633 2.28395 29.6633L72.0994 29.6633C72.0994 29.6633 16.6194 24.6633-0.900811-0.336702" fill="#5B6369" fill-rule="evenodd" transform="matrix(1 0 0 -1 1384 1711)"/><path d="M87.2536-1.51831C65.8402-1.51831 6.45059 65.7233-0.746545 224.482L32.6328 224.482C38.5285 30.2378 87.2536-1.51831 87.2536-1.51831" fill="#E9EAEB" fill-rule="evenodd" transform="matrix(1 0 0 -1 1363 1484)"/><path d="M-0.888178-0.595837C-0.888178-0.595837 44.112 28.8569 44.112 71.404L44.112-0.595837-0.888178-0.595837" fill="#E9EAEB" fill-rule="evenodd" transform="matrix(1 0 0 -1 1439 1660)"/><path d="M39.6364 12.7548 39.6364 12.7548C39.6364 12.7548 35.0267 14.0376 25.6025 12.194 14.109 9.94425-0.363955-2.02311-0.363955-2.02311 7.05499 12.194 23.9329 20.9769 31.0551 20.9769L31.0551 20.9769C35.7943 20.9769 39.6364 17.2962 39.6364 12.7548" fill="#9CA5AA" fill-rule="evenodd" transform="matrix(1 0 0 -1 1250 1245)"/><path d="M1833 1678 1933.23 1518 2468.77 1518 2569 1678Z" fill="#E49D1B" fill-rule="evenodd"/><rect x="1831" y="1678" width="736" height="656" fill="#CE8D18"/><path d="M2012 1605.5C2012 1593.07 2096.17 1583 2200 1583 2303.83 1583 2388 1593.07 2388 1605.5 2388 1617.93 2303.83 1628 2200 1628 2096.17 1628 2012 1617.93 2012 1605.5Z" fill="#383F49" fill-rule="evenodd" fill-opacity="0.160784"/><path d="M183.974-0.668237 183.974 21.5778C183.974 21.5778 118.591 37.7818 118.591 149.332L64.3584 149.332C64.3584 37.7818-1.02625 21.5778-1.02625 21.5778L-1.02625-0.668237 183.974-0.668237" fill="#E49D1B" fill-rule="evenodd" transform="matrix(1 0 0 -1 2107 1472)"/><path d="M55.613 128.003C55.8708 124.932 56.1854 121.948 56.5504 119.051 67.1119 34.8509 119.889 21.6857 119.889 21.6857L119.889-0.63134 106.248-0.63134 106.248 21.6857C106.248 21.6857 56.2323 34.1615 43.8364 112.501 38.8251 110.767 33.4992 109.835 27.9791 109.835 17.257 109.835 7.26797 113.356-1.111 119.424-0.752803 122.32-0.444745 125.301-0.190375 128.369L55.613 128.003" fill="#AC6E1F" fill-rule="evenodd" transform="matrix(1 0 0 -1 2171 1472)"/><path d="M106.969 58.0737C106.969 25.4892 82.7916-0.92649 52.9687-0.92649 23.1459-0.92649-1.03053 25.4892-1.03053 58.0737L106.969 58.0737" fill="#E49D1B" fill-rule="evenodd" transform="matrix(1 0 0 -1 2146 1352)"/><path d="M106.969 61.0526C106.969 54.9289 106.147 48.7922 104.492 42.8806 100.505 28.6726 91.9655 16.7254 80.7901 9.18582 72.6646 3.70164 63.1473-0.947359 52.9695-0.947359 42.9466-0.947359 33.099 2.80775 25.5195 8.93791 30.8444 6.74882 36.5973 5.55147 42.5995 5.55147 62.0789 5.55147 78.9331 18.1511 87.0215 36.4764 76.0382 33.3542 64.6471 31.7687 52.9695 31.7687 34.966 31.7687 17.6434 35.5368 1.44649 42.8806-0.16442 48.6161-1.03052 54.7202-1.03052 61.0526L106.969 61.0526" fill="#AC6E1F" fill-rule="evenodd" transform="matrix(1 0 0 -1 2146 1354)"/><path d="M324.972 255.123C324.972 91.8847 251.994-1.47887 161.971-1.47887 71.9495-1.47887-1.02792 91.8847-1.02792 255.123L-1.02792 282.521 324.972 282.521 324.972 255.123" fill="#E49D1B" fill-rule="evenodd" transform="matrix(1 0 0 -1 2037 1315)"/><path d="M93.0236 1.92256C97.484-0.148597 101.791-1.4004 106.766-1.64554 108.96-1.75202 111.15-1.43268 113.312-1.11324 114.728-0.900277 116.111-0.568002 117.451-0.0776101 124.501 2.51612 131.068 7.11012 134.294 13.8785 136.191 17.8564 137.188 21.5729 137.488 25.9701 137.72 29.3671 137.238 32.945 136.302 36.2163 135.241 39.9296 133.388 43.6008 131.307 46.9011 123.957 58.5604 112.91 67.7549 101.976 76.2073 94.4273 82.0433 86.6846 87.644 79.0167 93.3347 79.7484 92.7896 80.48 92.2476 81.2118 91.7055 68.5641 101.094 55.9907 110.733 45.036 121.963 42.0182 125.054 39.1375 128.27 36.4381 131.622 37.0036 130.919 37.5687 130.219 38.1342 129.516 33.1647 135.72 28.8524 142.407 25.654 149.621 26.0184 148.792 26.383 147.963 26.7474 147.13 24.1836 152.97 22.3908 159.086 21.4966 165.364 21.6259 164.442 21.7551 163.519 21.884 162.593 21.14 167.984 20.9854 173.462 21.7161 178.859 21.5869 177.937 21.4576 177.014 21.3287 176.088 21.9801 180.666 23.2447 185.125 25.1033 189.386 24.7386 188.557 24.3743 187.725 24.0096 186.896 25.8538 191.048 28.2335 194.945 31.103 198.516 30.5375 197.813 29.9719 197.11 29.4068 196.406 32.21 199.855 35.4317 202.949 39.0193 205.643 38.2875 205.101 37.5559 204.555 36.8239 204.013 40.5435 206.769 44.5982 209.056 48.9189 210.827 48.0552 210.479 47.1911 210.127 46.3275 209.779 50.762 211.563 55.404 212.779 60.1676 213.405 59.2065 213.279 58.2451 213.156 57.2841 213.031 61.3536 213.54 65.4859 213.682 69.561 213.156 68.6001 213.282 67.6386 213.405 66.6776 213.531 69.8119 213.095 72.8558 212.292 75.7783 211.117 74.9147 211.469 74.0509 211.817 73.1873 212.169 76.0324 210.998 78.6987 209.501 81.1624 207.701 80.4307 208.246 79.6991 208.788 78.967 209.33 81.4874 207.453 83.7372 205.291 85.6916 202.871 85.1265 203.575 84.561 204.278 83.9955 204.981 85.8695 202.613 87.4253 200.052 88.6449 197.319 88.2803 198.148 87.9159 198.977 87.5512 199.807 88.7708 197 89.6089 194.074 90.0606 191.064 89.9313 191.986 89.8021 192.912 89.6731 193.835 89.8977 192.222 90.0125 190.606 90.0209 188.98 90.0347 186.302 91.2215 183.511 93.1982 181.611 95.0797 179.805 98.1664 178.443 100.868 178.559 106.721 178.811 111.745 183.14 111.716 188.98 111.654 200.971 106.651 212.711 97.7684 221.167 88.8944 229.613 76.6322 234.407 64.1423 234.333 40.9813 234.194 18.8579 221.725 7.6797 202.178 2.09772 192.419-0.716905 181.321-0.434818 170.188-0.217247 161.593 1.37985 152.896 4.48992 144.827 10.7481 128.59 21.6349 114.701 34.38 102.61 46.8356 90.7926 60.868 80.6432 74.7236 70.4164 76.3055 69.2486 77.8867 68.0807 79.4653 66.9096 78.7336 67.4549 78.0019 67.9968 77.2702 68.5388 86.7943 61.4671 96.4018 54.3051 104.729 45.9172 106.745 43.888 108.673 41.7749 110.465 39.5585 109.9 40.2618 109.335 40.9651 108.769 41.6683 111.417 38.3746 113.76 34.842 115.454 30.9996 115.09 31.8319 114.725 32.6611 114.361 33.4902 115.168 31.6351 115.711 29.7124 116.011 27.7219 115.881 28.6445 115.752 29.5704 115.623 30.4931 115.89 28.4864 115.902 26.483 115.639 24.4764 115.768 25.3991 115.897 26.3217 116.027 27.2444 115.768 25.5184 115.313 23.8569 114.621 22.2439 114.986 23.0731 115.35 23.9022 115.715 24.7344 115.101 23.3827 114.342 22.1278 113.405 20.9599 113.97 21.6633 114.535 22.3665 115.101 23.0698 114.115 21.902 112.998 20.8696 111.761 19.9501 112.493 20.4922 113.225 21.0341 113.956 21.5793 112.66 20.647 111.278 19.8727 109.798 19.2468 110.662 19.5985 111.525 19.9469 112.389 20.2986 110.826 19.6695 109.219 19.234 107.544 18.9855 108.506 19.1113 109.467 19.234 110.428 19.3598 108.639 19.1307 106.864 19.1339 105.075 19.3533 106.036 19.2306 106.998 19.1049 107.959 18.9823 106.148 19.2436 104.415 19.7178 102.72 20.3824 103.583 20.0308 104.447 19.6823 105.311 19.3307 104.86 19.5178 104.416 19.7146 103.973 19.9211 101.312 21.1567 98.5495 21.7471 95.615 20.9696 93.0989 20.305 90.3718 18.4371 89.1321 16.182 87.802 13.7624 87.1355 10.8331 88.0388 8.15217 88.8695 5.68427 90.5042 3.09364 93.0236 1.92256L93.0236 1.92256" fill="#986006" fill-rule="evenodd" transform="matrix(1 0 0 -1 1925 1241)"/><path d="M28.8117 40.7797C20.9631 48.2744 10.4656 52.9026-0.502427 53.8258 0.953102 53.9294 2.41187 53.9877 3.87742 53.9974 16.3816 54.0719 28.6538 49.259 37.5378 40.7797 46.4285 32.2909 51.4369 20.5048 51.4974 8.46618 51.5277 2.60393 46.4991-1.7426 40.6403-1.99515 39.1748-2.05676 37.6016-1.68754 36.163-1.04625 40.0084 0.569925 42.7983 4.097 42.7748 8.46618 42.7108 20.5048 37.7025 32.2909 28.8117 40.7797" fill="#583910" fill-rule="evenodd" transform="matrix(1 0 0 -1 1985 1061)"/><path d="M124.47 25.9822C124.168 21.589 123.171 17.8759 121.274 13.9016 118.051 7.13945 111.484 2.54961 104.434-0.0386665 103.094-0.53182 101.714-0.863793 100.297-1.07336 98.1354-1.39561 95.9464-1.71477 93.7506-1.60518 92.5655-1.54707 91.4173-1.43107 90.296-1.26028 90.7257-1.19897 91.1554-1.13777 91.5818-1.07336 92.9986-0.863793 94.3819-0.53182 95.7215-0.0386665 102.768 2.54961 109.335 7.13945 112.562 13.9016 114.459 17.8759 115.453 21.589 115.755 25.9822 115.986 29.3763 115.503 32.9508 114.569 36.2191 113.509 39.9291 111.655 43.597 109.574 46.8944 102.225 58.5431 91.1789 67.7291 80.2474 76.1739 73.103 81.6921 65.7874 87.0007 58.5255 92.3738 46.2041 101.528 33.9935 110.952 23.3171 121.889 20.6783 124.59 18.1435 127.387 15.743 130.288 15.9645 130.001 16.1895 129.718 16.4178 129.434 15.8538 130.137 15.2864 130.839 14.7224 131.539 15.048 131.133 15.3771 130.733 15.7094 130.33 11.2945 135.948 7.4302 141.959 4.44895 148.396 2.37411 153.395 0.859895 158.588-0.0095843 163.906-0.543398 168.399-0.647533 172.944-0.150657 177.444 0.463816 181.028 1.46424 184.535 2.83405 187.922 4.38853 191.21 6.2887 194.33 8.50795 197.244 10.8412 199.977 13.4466 202.478 16.3003 204.718 19.332 206.843 22.5684 208.664 25.9863 210.153 29.5484 211.481 33.2347 212.448 37.005 213.038 40.0803 213.353 43.1825 213.44 46.2645 213.166 45.8314 213.244 45.395 213.312 44.9551 213.373 45.4856 213.305 46.0161 213.234 46.5432 213.166 46.748 213.192 46.9562 213.221 47.1609 213.247 46.9629 213.221 46.7647 213.196 46.57 213.163 46.6406 213.154 46.7111 213.147 46.7782 213.137 46.748 213.134 46.7178 213.131 46.691 213.128 46.6439 213.124 46.6003 213.121 46.5567 213.115 46.2746 213.092 45.9926 213.067 45.7106 213.034 41.9436 212.444 38.2573 211.481 34.6985 210.153 31.2808 208.66 28.0342 206.839 24.9992 204.709 22.1555 202.472 19.5536 199.974 17.2235 197.244 15.0111 194.343 13.1209 191.242 11.5699 187.971 10.1799 184.551 9.17272 181.005 8.5549 177.382 8.06815 172.899 8.17552 168.37 8.70599 163.893 9.57558 158.582 11.0863 153.392 13.1645 148.396 16.1459 141.959 20.0102 135.948 24.4251 130.33 24.4351 130.317 24.4452 130.304 24.4586 130.288 26.8558 127.387 29.3905 124.59 32.0328 121.889 42.5446 111.117 54.5537 101.811 66.6838 92.7863 74.127 87.2714 81.6374 81.8338 88.9631 76.1739 99.8946 67.7291 110.94 58.5431 118.289 46.8944 120.368 43.597 122.221 39.9291 123.282 36.2191 124.218 32.9508 124.702 29.3763 124.47 25.9822" fill="#583910" fill-rule="evenodd" transform="matrix(1 0 0 -1 1938 1241)"/><path d="M42.9235 1.92256C38.4642-0.148597 34.156-1.4004 29.1829-1.64554 26.9869-1.75202 24.7975-1.43268 22.635-1.11324 21.218-0.900277 19.8378-0.568002 18.498-0.0776101 11.4464 2.51612 4.87829 7.11012 1.65471 13.8785-0.242557 17.8564-1.23982 21.5729-1.54205 25.9701-1.77373 29.3671-1.29023 32.945-0.353388 36.2163 0.707746 39.9296 2.56129 43.6008 4.63993 46.9011 11.9903 58.5604 23.0379 67.7549 33.9713 76.2073 41.5199 82.0433 49.2633 87.644 56.9295 93.3347 56.2007 92.7896 55.4687 92.2476 54.7366 91.7055 67.3826 101.094 79.958 110.733 90.9115 121.963 93.9303 125.054 96.8114 128.27 99.5079 131.622 98.9437 130.919 98.3796 130.219 97.8121 129.516 102.782 135.72 107.093 142.407 110.293 149.621 109.927 148.792 109.565 147.963 109.199 147.13 111.764 152.97 113.557 159.086 114.451 165.364 114.323 164.442 114.192 163.519 114.064 162.593 114.807 167.984 114.961 173.462 114.232 178.859 114.36 177.937 114.491 177.014 114.618 176.088 113.967 180.666 112.701 185.125 110.844 189.386 111.207 188.557 111.573 187.725 111.939 186.896 110.092 191.048 107.715 194.945 104.844 198.516 105.411 197.813 105.975 197.11 106.539 196.406 103.735 199.855 100.515 202.949 96.9289 205.643 97.661 205.101 98.393 204.555 99.1216 204.013 95.4044 206.769 91.348 209.056 87.0298 210.827 87.8928 210.479 88.7557 210.127 89.6187 209.779 85.1863 211.563 80.5423 212.779 75.7808 213.405 76.7412 213.279 77.7015 213.156 78.6618 213.031 74.5954 213.54 70.4618 213.682 66.3853 213.156 67.349 213.282 68.3094 213.405 69.2697 213.531 66.1368 213.095 63.0912 212.292 60.1698 211.117 61.0328 211.469 61.8957 211.817 62.7587 212.169 59.9146 210.998 57.2484 209.501 54.7837 207.701 55.5157 208.246 56.2477 208.788 56.9798 209.33 54.4613 207.453 52.2115 205.291 50.2572 202.871 50.8214 203.575 51.3855 204.278 51.9529 204.981 50.0793 202.613 48.5212 200.052 47.3022 197.319 47.6682 198.148 48.0309 198.977 48.397 199.807 47.1779 197 46.3385 194.074 45.8886 191.064 46.0162 191.986 46.1437 192.912 46.2747 193.835 46.0497 192.222 45.9355 190.606 45.9255 188.98 45.9121 186.302 44.7267 183.511 42.7489 181.611 40.8684 179.805 37.7825 178.443 35.0794 178.559 29.2265 178.811 24.2031 183.14 24.2333 188.98 24.2938 200.971 29.2971 212.711 38.1788 221.167 47.0538 229.613 59.3136 234.407 71.8049 234.333 94.9645 234.194 117.09 221.725 128.268 202.178 133.849 192.419 136.663 181.321 136.381 170.188 136.163 161.593 134.568 152.896 131.458 144.827 125.199 128.59 114.313 114.701 101.566 102.61 89.1117 90.7926 75.0789 80.6432 61.2242 70.4164 59.6426 69.2486 58.061 68.0807 56.4828 66.9096 57.2148 67.4549 57.9469 67.9968 58.6788 68.5388 49.1524 61.4671 39.5455 54.3051 31.2178 45.9172 29.2031 43.888 27.2756 41.7749 25.4825 39.5585 26.0466 40.2618 26.6141 40.9651 27.1783 41.6683 24.5289 38.3746 22.1884 34.842 20.4926 30.9996 20.8586 31.8319 21.2213 32.6611 21.5873 33.4902 20.7781 31.6351 20.2374 29.7124 19.9386 27.7219 20.0661 28.6445 20.1938 29.5704 20.3247 30.4931 20.0561 28.4864 20.046 26.483 20.3079 24.4764 20.1803 25.3991 20.0493 26.3217 19.9218 27.2444 20.1803 25.5184 20.6336 23.8569 21.3253 22.2439 20.9627 23.0731 20.5967 23.9022 20.234 24.7344 20.8452 23.3827 21.6041 22.1278 22.5443 20.9599 21.9769 21.6633 21.4127 22.3665 20.8485 23.0698 21.8324 21.902 22.9506 20.8696 24.1864 19.9501 23.4543 20.4922 22.7223 21.0341 21.9902 21.5793 23.2897 20.647 24.6699 19.8727 26.1507 19.2468 25.2877 19.5985 24.4214 19.9469 23.5583 20.2986 25.1232 19.6695 26.7283 19.234 28.4039 18.9855 27.4434 19.1113 26.4798 19.234 25.5195 19.3598 27.3091 19.1307 29.0821 19.1339 30.872 19.3533 29.9116 19.2306 28.9512 19.1049 27.9875 18.9823 29.8007 19.2436 31.5334 19.7178 33.2292 20.3824 32.3629 20.0308 31.4998 19.6823 30.6369 19.3307 31.0869 19.5178 31.5301 19.7146 31.9733 19.9211 34.6362 21.1567 37.3997 21.7471 40.3312 20.9696 42.8496 20.305 45.5763 18.4371 46.8153 16.182 48.1452 13.7624 48.8133 10.8331 47.91 8.15217 47.0772 5.68427 45.442 3.09364 42.9235 1.92256L42.9235 1.92256" fill="#986006" fill-rule="evenodd" transform="matrix(1 0 0 -1 2337 1241)"/><path d="M277.905 282.521 277.905 255.123C277.905 91.8847 204.849-1.47887 114.731-1.47887 69.4443-1.47887 28.469 22.0969-1.09486 66.2689 26.5238 31.3959 62.5421 12.9074 101.943 12.9074 188.924 12.9074 259.436 103.021 259.436 260.58L259.436 282.521 277.905 282.521" fill="#AC6E1F" fill-rule="evenodd" transform="matrix(1 0 0 -1 2084 1315)"/><path d="M24.0362 8.5429C23.1866 6.07328 21.5185 3.48107 18.9495 2.30922 14.4004 0.23671 10.0057-1.01591 4.93262-1.258 2.76088-1.36455 0.599465-1.06758-1.5414-0.754346 1.74357-0.170129 4.82297 0.872597 7.97444 2.30922 10.5435 3.48107 12.2116 6.07328 13.0577 8.5429 13.9792 11.2256 13.301 14.1568 11.9445 16.578 11.1019 18.0791 9.58781 19.4091 7.91621 20.326 7.89555 20.3389 7.87841 20.3486 7.86138 20.355 10.5537 21.5689 13.3454 22.1403 16.305 21.3687 18.874 20.7037 21.6556 18.8345 22.9194 16.578 24.276 14.1568 24.9576 11.2256 24.0362 8.5429" fill="#98631C" fill-rule="evenodd" transform="matrix(1 0 0 -1 2361 1241)"/><path d="M125.366 149.194C125.148 140.605 123.554 131.914 120.445 123.85 114.188 107.627 103.306 93.745 90.5632 81.6616 78.1129 69.8555 64.0848 59.7097 50.2347 49.4897 48.7912 48.4226 47.3443 47.3586 45.9043 46.2883 45.891 46.2786 45.8775 46.269 45.8641 46.256 45.7399 46.1658 45.6157 46.0755 45.4948 45.9852 36.7001 39.4407 27.922 32.7444 20.2383 25.0069 18.5364 23.295 16.8983 21.5218 15.3508 19.6777 13.3737 17.1179 11.6046 14.4162 10.1881 11.5372 10.1813 11.534 10.1813 11.5308 10.1813 11.5276 9.76505 10.4281 9.44279 9.30624 9.20451 8.16169 9.12398 7.11073 9.12064 6.06297 9.19106 5.01191 9.35892 4.21564 9.57706 3.4322 9.84559 2.65838 10.1008 2.18455 10.3761 1.72675 10.6781 1.27857 11.1078 0.830492 11.561 0.404853 12.0342-0.00134434 12.1216-0.0593578 12.2089-0.114165 12.2995-0.165767 12.2827-0.168973 12.2625-0.175385 12.2458-0.1819 12.2323-0.185105 12.2155-0.188311 12.2021-0.194826 11.5744-0.397925 10.9501-0.64611 10.3324-0.929869 9.43945-1.23286 8.53652-1.48115 7.61335-1.67132 6.86815-1.71321 6.12296-1.71321 5.37776-1.67453 4.65604-1.52303 3.94444-1.33286 3.24285-1.10712 2.56807-0.775064 1.91688-0.407542 1.28248-0.00455007 0.809151 0.401647 0.352624 0.827183-0.0769851 1.27857-0.375774 1.72344-0.650982 2.18124-0.906163 2.64876-1.17803 3.42248-1.39628 4.21233-1.56404 5.01191-1.63456 6.06297-1.63122 7.11394-1.55068 8.165-1.31575 9.30945-0.99004 10.4315-0.573781 11.5276-0.573781 11.5308-0.573781 11.534-0.567106 11.5372 0.84942 14.4162 2.61846 17.1179 4.59564 19.6777 6.14309 21.5218 7.7812 23.295 9.48317 25.0069 17.2911 32.8669 26.2235 39.6534 35.1559 46.2947 36.5959 47.3619 38.036 48.4258 39.4795 49.4897 53.3296 59.7097 67.3577 69.8555 79.8081 81.6616 92.5504 93.745 103.433 107.627 109.687 123.85 112.795 131.914 114.393 140.605 114.611 149.194 114.893 160.32 112.08 171.41 106.498 181.163 96.2093 199.152 76.6358 211.146 55.5182 213.035 57.2705 213.219 59.0395 213.306 60.8119 213.296 83.9638 213.157 106.082 200.697 117.256 181.163 122.835 171.41 125.648 160.32 125.366 149.194" fill="#583910" fill-rule="evenodd" transform="matrix(1 0 0 -1 2348 1220)"/><path d="M262.86 116.16 262.86-0.190828-1.1397-0.190828-1.1397 116.16C-1.1397 119.819 2.35445 122.809 6.62471 122.809L255.094 122.809C259.366 122.809 262.86 119.819 262.86 116.16" fill="#4A321E" fill-rule="evenodd" transform="matrix(1 0 0 -1 2067 1589)"/><path d="M21.5445 116.16 21.5445-0.190828 6.20863-0.190828 6.20863 116.16C6.20863 119.819 2.76207 122.809-1.4556 122.809L13.8765 122.809C18.0943 122.809 21.5445 119.819 21.5445 116.16" fill="#412C1B" fill-rule="evenodd" transform="matrix(1 0 0 -1 2308 1589)"/><path d="M310.855 20.2949 310.855 6.79644C310.855 3.08487 307.345 0.0455158 303.057 0.0455158L6.65536 0.0455158C2.36505 0.0455158-1.14489 3.08487-1.14489 6.79644L-1.14489 20.2949C-1.14489 24.0097 2.36505 27.0458 6.65536 27.0458L303.057 27.0458C307.345 27.0458 310.855 24.0097 310.855 20.2949" fill="#4A321E" fill-rule="evenodd" transform="matrix(1 0 0 -1 2043 1606)"/><path d="M22.4142 20.2949 22.4142 6.79644C22.4142 3.08487 18.8135 0.0455158 14.4155 0.0455158L-1.58584 0.0455158C2.81209 0.0455158 6.41291 3.08487 6.41291 6.79644L6.41291 20.2949C6.41291 24.0097 2.81209 27.0458-1.58584 27.0458L14.4155 27.0458C18.8135 27.0458 22.4142 24.0097 22.4142 20.2949" fill="#412C1B" fill-rule="evenodd" transform="matrix(1 0 0 -1 2331 1606)"/><path d="M184.862 54.0113 184.862 6.56301C184.862 2.83583 181.375-0.213056 177.111-0.213056L6.6123-0.213056C2.34988-0.213056-1.13755 2.83583-1.13755 6.56301L-1.13755 54.0113C-1.13755 57.7384 2.34988 60.7872 6.6123 60.7872L177.111 60.7872C181.375 60.7872 184.862 57.7384 184.862 54.0113" fill="#E49D1B" fill-rule="evenodd" transform="matrix(1 0 0 -1 2106 1553)"/><path d="M160.826 54.0113 160.826 6.56301C160.826 2.83583 157.329-0.213056 153.054-0.213056L-1.17452-0.213056C30.2154 0.328318 133.629 6.15541 133.629 60.7872L153.054 60.7872C157.329 60.7872 160.826 57.7384 160.826 54.0113" fill="#AC6E1F" fill-rule="evenodd" transform="matrix(1 0 0 -1 2130 1553)"/><path d="M-1.00638-0.239796-1.00638 27.0341C-1.00638 28.5383 0.419814 29.7602 2.17878 29.7602L71.9936 29.7602C71.9936 29.7602 16.514 24.7602-1.00638-0.239796" fill="#FBC351" fill-rule="evenodd" transform="matrix(1 0 0 -1 2113 1529)"/><path d="M-0.900811-0.336702-0.900811 26.9372C-0.900811 28.4446 0.525002 29.6633 2.28395 29.6633L72.0994 29.6633C72.0994 29.6633 16.6194 24.6633-0.900811-0.336702" fill="#95653D" fill-rule="evenodd" transform="matrix(1 0 0 -1 2075 1502)"/><path d="M87.2536-1.51831C65.8402-1.51831 6.45059 65.7233-0.746545 224.482L32.6328 224.482C38.5285 30.2378 87.2536-1.51831 87.2536-1.51831" fill="#FBC351" fill-rule="evenodd" transform="matrix(1 0 0 -1 2054 1275)"/><path d="M-0.888178-0.604112C-0.888178-0.604112 44.112 29.2577 44.112 72.3958L44.112-0.604112-0.888178-0.604112" fill="#FBC351" fill-rule="evenodd" transform="matrix(1 0 0 -1 2130 1452)"/><path d="M39.636 12.7548 39.636 12.7548C39.636 12.7548 35.0264 14.0376 25.6022 12.194 14.1089 9.94425-0.363952-2.02311-0.363952-2.02311 7.05493 12.194 23.9327 20.9769 31.0548 20.9769L31.0548 20.9769C35.794 20.9769 39.636 17.2962 39.636 12.7548" fill="#FAAB0E" fill-rule="evenodd" transform="matrix(1 0 0 -1 1941 1036)"/><rect x="1345" y="1264" width="326" height="16.0001" fill="#6A767C"/><rect x="2036" y="1055" width="326" height="17.0002" fill="#986006"/><rect x="2733" y="1392" width="326" height="17.0002" fill="#AB6C2F"/><g filter="url(#fx1)" transform="matrix(5 0 0 4.98507 1230 -60)"><g clip-path="url(#clip3)"><path d="M287.631 25.3586 284.686 25.3868 284.686 40.924 287.631 40.9522C289.879 40.9187 291.668 40.2019 292.997 38.8017 294.326 37.4016 295.007 35.5195 295.038 33.1554 295.007 30.7913 294.326 28.9092 292.997 27.5091 291.668 26.1089 289.879 25.3921 287.631 25.3586ZM230.649 25.3586 230.649 33.1271 235.222 33.1271C236.363 33.1077 237.28 32.744 237.972 32.036 238.664 31.328 239.019 30.3922 239.038 29.2287 239.018 28.0787 238.658 27.1512 237.958 26.4461 237.258 25.7411 236.336 25.3786 235.194 25.3586ZM151.046 25.3586 151.046 33.1271 155.563 33.1271C156.716 33.1148 157.636 32.7652 158.323 32.0784 159.01 31.3915 159.362 30.4417 159.379 29.2287 159.362 28.017 159.01 27.0718 158.323 26.3932 157.636 25.7146 156.716 25.3698 155.563 25.3586ZM261.651 25.1326C259.433 25.1667 257.67 25.9035 256.363 27.3431 255.056 28.7826 254.387 30.7201 254.357 33.1554 254.387 35.5907 255.056 37.5282 256.363 38.9677 257.67 40.4072 259.433 41.1441 261.651 41.1782 263.871 41.1441 265.639 40.4072 266.954 38.9677 268.269 37.5282 268.943 35.5907 268.974 33.1554 268.943 30.7201 268.269 28.7826 266.954 27.3431 265.639 25.9035 263.871 25.1667 261.651 25.1326ZM346.914 22.7314 350.141 22.7314 357.351 35.4718 364.534 22.7314 367.788 22.7314 367.788 43.5794 364.814 43.5794 364.814 28.24 358.642 39.229 356.032 39.229 349.888 28.24 349.888 43.5794 346.914 43.5794ZM321.018 22.7314 323.992 22.7314 323.992 35.3306C323.993 37.0502 324.406 38.4204 325.23 39.4408 326.055 40.4614 327.288 40.984 328.93 41.0087 330.572 40.984 331.805 40.4614 332.63 39.4408 333.455 38.4204 333.867 37.0502 333.868 35.3306L333.868 22.7314 336.87 22.7314 336.87 35.3306C336.851 37.8454 336.152 39.8711 334.773 41.4078 333.393 42.9444 331.446 43.7342 328.93 43.7772 326.416 43.7342 324.473 42.9444 323.101 41.4078 321.73 39.8711 321.036 37.8454 321.018 35.3306ZM307.664 22.7314 310.638 22.7314 310.638 43.5794 307.664 43.5794ZM281.712 22.7314 287.659 22.7314C289.695 22.7466 291.485 23.1933 293.03 24.0716 294.574 24.95 295.783 26.1689 296.654 27.7284 297.526 29.2878 297.969 31.0968 297.984 33.1554 297.969 35.214 297.526 37.023 296.654 38.5824 295.783 40.1419 294.574 41.3608 293.03 42.2392 291.485 43.1175 289.695 43.5642 287.659 43.5794L281.712 43.5794ZM227.675 22.7314 235.307 22.7314C237.303 22.7638 238.907 23.3699 240.118 24.5499 241.329 25.73 241.951 27.2895 241.984 29.2287 241.951 31.1679 241.329 32.7275 240.118 33.9075 238.907 35.0875 237.303 35.6937 235.307 35.7261L230.649 35.7261 230.649 43.5794 227.675 43.5794ZM148.072 22.7314 155.928 22.7314C157.853 22.7596 159.397 23.3529 160.561 24.5111 161.724 25.6693 162.322 27.223 162.353 29.1722 162.37 30.5447 162.006 31.7688 161.259 32.8446 160.512 33.9205 159.361 34.7491 157.808 35.3306L163.335 43.5794 159.744 43.5794 154.497 35.7543 151.046 35.7543 151.046 43.5794 148.072 43.5794ZM125.291 22.7314 138.673 22.7314 138.673 25.3586 128.265 25.3586 128.265 31.5452 137.214 31.5452 137.214 34.1441 128.265 34.1441 128.265 40.9522 138.673 40.9522 138.673 43.5794 125.291 43.5794ZM98.8897 22.7314 102.116 22.7314 112.357 38.4098 112.357 22.7314 115.359 22.7314 115.359 43.5794 112.132 43.5794 101.864 27.8728 101.864 43.5794 98.8897 43.5794ZM72.2363 22.7314 75.4627 22.7314 85.7033 38.4098 85.7033 22.7314 88.7053 22.7314 88.7053 43.5794 85.4788 43.5794 75.2102 27.8728 75.2102 43.5794 72.2363 43.5794ZM58.9937 22.7314 61.9677 22.7314 61.9677 43.5794 58.9937 43.5794ZM22.212 22.7314 25.3263 22.7314 29.9275 38.212 34.3043 22.7596 37.4746 22.7596 41.9636 38.212 46.172 22.7314 49.2863 22.7314 43.5348 43.5794 40.7572 43.5794 35.9035 27.901 31.3303 43.5794 28.5247 43.5794ZM261.651 22.5054C263.687 22.5212 265.477 22.9792 267.022 23.8791 268.566 24.7791 269.775 26.0259 270.646 27.6196 271.518 29.2132 271.961 31.0585 271.976 33.1554 271.961 35.2523 271.518 37.0975 270.646 38.6912 269.775 40.2848 268.566 41.5317 267.022 42.4316 265.477 43.3316 263.687 43.7895 261.651 43.8054 259.625 43.7895 257.842 43.3316 256.301 42.4316 254.76 41.5317 253.554 40.2848 252.684 38.6912 251.813 37.0975 251.37 35.2523 251.355 33.1554 251.37 31.0585 251.813 29.2132 252.684 27.6196 253.554 26.0259 254.76 24.7791 256.301 23.8791 257.842 22.9792 259.625 22.5212 261.651 22.5054ZM193.947 22.2464C193.988 22.2464 194.03 22.2513 194.071 22.2618 194.112 22.2672 194.153 22.2826 194.195 22.2983 194.26 22.3274 194.318 22.3689 194.371 22.4168 194.406 22.4467 194.433 22.4798 194.461 22.5166 194.479 22.5411 194.494 22.567 194.508 22.5938 194.526 22.626 194.553 22.6514 194.565 22.6873L196.291 27.4752C196.879 29.0987 198.13 30.385 199.727 31.0023L204.266 32.7555C204.56 32.8698 204.75 33.155 204.75 33.4714 204.75 33.8033 204.539 34.0992 204.22 34.1975L200.067 35.5152C198.275 36.0858 196.853 37.4864 196.25 39.2812L194.56 44.3076C194.54 44.3748 194.504 44.4322 194.462 44.4891 194.442 44.515 194.421 44.541 194.395 44.5669 194.334 44.6239 194.261 44.6758 194.179 44.7072 194.153 44.7171 194.122 44.7276 194.092 44.7328 194.045 44.7485 193.994 44.7536 193.942 44.7536 193.891 44.7536 193.839 44.7485 193.793 44.7328 193.762 44.7276 193.731 44.7171 193.705 44.7072 193.612 44.6707 193.535 44.6188 193.473 44.5512 193.442 44.5254 193.422 44.4943 193.401 44.4632 193.37 44.4164 193.345 44.3646 193.324 44.3076L191.634 39.2812C191.026 37.4864 189.609 36.0858 187.812 35.5152L183.659 34.1975C183.345 34.0992 183.129 33.8033 183.129 33.4714 183.129 33.155 183.324 32.8698 183.618 32.7555L188.157 31.0023C189.754 30.385 191.006 29.0987 191.588 27.4752L193.314 22.6873C193.329 22.6468 193.359 22.6177 193.38 22.5818 193.393 22.5594 193.406 22.5374 193.421 22.5166 193.448 22.4809 193.475 22.4487 193.508 22.4197 193.562 22.3707 193.622 22.3279 193.69 22.2983 193.731 22.2826 193.772 22.2672 193.813 22.2618Z" fill="#D6D7DB" fill-rule="evenodd"/></g></g><path d="M2659.08 67.2101 2644.63 67.3482 2644.63 143.283 2659.08 143.421C2670.1 143.258 2678.86 139.754 2685.38 132.911 2691.89 126.068 2695.23 116.87 2695.38 105.316 2695.23 93.7615 2691.89 84.5631 2685.38 77.7204 2678.86 70.8773 2670.1 67.3739 2659.08 67.2101ZM2379.75 67.2101 2379.75 105.178 2402.17 105.178C2407.76 105.083 2412.25 103.305 2415.65 99.845 2419.04 96.3847 2420.78 91.8112 2420.87 86.1249 2420.78 80.5045 2419.01 75.9716 2415.58 72.5254 2412.15 69.0796 2407.63 67.308 2402.03 67.2101ZM1989.54 67.2101 1989.54 105.178 2011.68 105.178C2017.34 105.117 2021.85 103.409 2025.21 100.052 2028.58 96.6953 2030.3 92.0529 2030.39 86.1249 2030.3 80.2026 2028.58 75.5831 2025.21 72.2667 2021.85 68.9502 2017.34 67.2648 2011.68 67.2101ZM2531.72 66.1056C2520.85 66.2723 2512.2 69.8736 2505.8 76.909 2499.39 83.9445 2496.11 93.4137 2495.96 105.316 2496.11 117.218 2499.39 126.687 2505.8 133.723 2512.2 140.758 2520.85 144.359 2531.72 144.526 2542.6 144.359 2551.27 140.758 2557.72 133.723 2564.16 126.687 2567.46 117.218 2567.62 105.316 2567.46 93.4137 2564.16 83.9445 2557.72 76.909 2551.27 69.8736 2542.6 66.2723 2531.72 66.1056ZM2949.68 54.3702 2965.49 54.3702 3000.84 116.637 3036.05 54.3702 3052 54.3702 3052 156.261 3037.42 156.261 3037.42 81.2926 3007.17 135 2994.37 135 2964.26 81.2926 2964.26 156.261 2949.68 156.261ZM2822.74 54.3702 2837.31 54.3702 2837.31 115.947C2837.32 124.351 2839.34 131.047 2843.38 136.035 2847.43 141.023 2853.47 143.577 2861.52 143.698 2869.57 143.577 2875.61 141.023 2879.66 136.035 2883.7 131.047 2885.72 124.351 2885.73 115.947L2885.73 54.3702 2900.44 54.3702 2900.44 115.947C2900.35 128.237 2896.92 138.138 2890.16 145.648 2883.4 153.158 2873.85 157.018 2861.52 157.228 2849.19 157.018 2839.67 153.158 2832.95 145.648 2826.23 138.138 2822.82 128.237 2822.74 115.947ZM2757.27 54.3702 2771.85 54.3702 2771.85 156.261 2757.27 156.261ZM2630.06 54.3702 2659.21 54.3702C2669.19 54.4445 2677.96 56.6278 2685.54 60.9204 2693.11 65.2135 2699.03 71.1705 2703.3 78.7923 2707.58 86.4137 2709.75 95.2549 2709.82 105.316 2709.75 115.377 2707.58 124.218 2703.3 131.839 2699.03 139.461 2693.11 145.418 2685.54 149.711 2677.96 154.004 2669.19 156.187 2659.21 156.261L2630.06 156.261ZM2365.17 54.3702 2402.58 54.3702C2412.37 54.5285 2420.23 57.4909 2426.17 63.2581 2432.1 69.0253 2435.15 76.6474 2435.31 86.1249 2435.15 95.6024 2432.1 103.225 2426.17 108.992 2420.23 114.759 2412.37 117.721 2402.58 117.88L2379.75 117.88 2379.75 156.261 2365.17 156.261ZM1974.96 54.3702 2013.47 54.3702C2022.91 54.5082 2030.48 57.4076 2036.18 63.0682 2041.88 68.7288 2044.81 76.3223 2044.96 85.8488 2045.05 92.5563 2043.26 98.539 2039.6 103.797 2035.94 109.055 2030.3 113.105 2022.68 115.947L2049.78 156.261 2032.17 156.261 2006.46 118.018 1989.54 118.018 1989.54 156.261 1974.96 156.261ZM1863.29 54.3702 1928.89 54.3702 1928.89 67.2101 1877.87 67.2101 1877.87 97.4461 1921.74 97.4461 1921.74 110.148 1877.87 110.148 1877.87 143.421 1928.89 143.421 1928.89 156.261 1863.29 156.261ZM1733.87 54.3702 1749.69 54.3702 1799.89 130.996 1799.89 54.3702 1814.6 54.3702 1814.6 156.261 1798.79 156.261 1748.45 79.4978 1748.45 156.261 1733.87 156.261ZM1603.22 54.3702 1619.03 54.3702 1669.23 130.996 1669.23 54.3702 1683.95 54.3702 1683.95 156.261 1668.13 156.261 1617.8 79.4978 1617.8 156.261 1603.22 156.261ZM1538.3 54.3702 1552.88 54.3702 1552.88 156.261 1538.3 156.261ZM1358 54.3702 1373.27 54.3702 1395.82 130.029 1417.28 54.5082 1432.82 54.5082 1454.82 130.029 1475.45 54.3702 1490.72 54.3702 1462.52 156.261 1448.91 156.261 1425.11 79.6359 1402.7 156.261 1388.94 156.261ZM2531.72 53.2657C2541.7 53.3432 2550.47 55.5812 2558.05 59.9797 2565.62 64.3782 2571.54 70.4718 2575.81 78.2603 2580.09 86.0491 2582.26 95.0675 2582.33 105.316 2582.26 115.564 2580.09 124.582 2575.81 132.371 2571.54 140.16 2565.62 146.253 2558.05 150.652 2550.47 155.05 2541.7 157.288 2531.72 157.366 2521.79 157.288 2513.05 155.05 2505.49 150.652 2497.94 146.253 2492.03 140.16 2487.76 132.371 2483.5 124.582 2481.32 115.564 2481.25 105.316 2481.32 95.0675 2483.5 86.0491 2487.76 78.2603 2492.03 70.4718 2497.94 64.3782 2505.49 59.9797 2513.05 55.5812 2521.79 53.3432 2531.72 53.2657ZM2199.84 51.9999C2200.04 51.9999 2200.24 52.0238 2200.45 52.0753 2200.65 52.1017 2200.85 52.1767 2201.05 52.2536 2201.37 52.3956 2201.66 52.5989 2201.92 52.833 2202.09 52.979 2202.22 53.1406 2202.36 53.3204 2202.45 53.4403 2202.52 53.5668 2202.59 53.6976 2202.68 53.8552 2202.81 53.9792 2202.87 54.1546L2211.33 77.5548C2214.21 85.4893 2220.35 91.7761 2228.17 94.7928L2250.42 103.361C2251.86 103.92 2252.8 105.314 2252.8 106.86 2252.8 108.483 2251.76 109.928 2250.2 110.409L2229.84 116.849C2221.05 119.637 2214.08 126.483 2211.13 135.255L2202.84 159.82C2202.74 160.149 2202.57 160.429 2202.36 160.707 2202.26 160.834 2202.16 160.961 2202.04 161.088 2201.73 161.366 2201.38 161.62 2200.98 161.773 2200.85 161.822 2200.7 161.873 2200.55 161.898 2200.32 161.975 2200.07 162 2199.81 162 2199.56 162 2199.31 161.975 2199.08 161.898 2198.93 161.873 2198.78 161.822 2198.65 161.773 2198.2 161.595 2197.82 161.341 2197.52 161.011 2197.36 160.885 2197.26 160.733 2197.16 160.581 2197.01 160.352 2196.89 160.099 2196.78 159.82L2188.5 135.255C2185.52 126.483 2178.58 119.637 2169.76 116.849L2149.41 110.409C2147.87 109.928 2146.81 108.483 2146.81 106.86 2146.81 105.314 2147.77 103.92 2149.21 103.361L2171.45 94.7928C2179.28 91.7761 2185.42 85.4893 2188.27 77.5548L2196.73 54.1546C2196.81 53.9571 2196.95 53.8147 2197.06 53.6393 2197.12 53.5295 2197.18 53.4222 2197.26 53.3204 2197.39 53.1461 2197.52 52.9888 2197.69 52.8468 2197.95 52.6072 2198.24 52.3981 2198.58 52.2536 2198.78 52.1767 2198.98 52.1017 2199.18 52.0753Z" fill="#D6D7DB" fill-rule="evenodd"/><path d="M-0.498222 7.00066C-0.498222 11.1434 2.85975 14.5008 7.00308 14.5008 11.1436 14.5008 14.5018 11.1434 14.5018 7.00066 14.5018 2.86096 11.1436-0.49922 7.00308-0.49922 2.85975-0.49922-0.498222 2.86096-0.498222 7.00066" fill="#F3FCDD" fill-rule="evenodd" transform="matrix(1 0 0 -1 1465 1295)"/><path d="M-0.517246 6.56877C-0.517246 10.4354 2.84081 13.569 6.98424 13.569 11.125 13.569 14.4831 10.4354 14.4831 6.56877 14.4831 2.70495 11.125-0.431284 6.98424-0.431284 2.84081-0.431284-0.517246 2.70495-0.517246 6.56877" fill="#F3FCDD" fill-rule="evenodd" transform="matrix(1 0 0 -1 1492 1335)"/><path d="M-0.443893 4.51477C-0.443893 7.27683 1.57164 9.51342 4.05467 9.51342 6.54051 9.51342 8.55604 7.27683 8.55604 4.51477 8.55604 1.75272 6.54051-0.486767 4.05467-0.486767 1.57164-0.486767-0.443893 1.75272-0.443893 4.51477" fill="#F3FCDD" fill-rule="evenodd" transform="matrix(1 0 0 -1 1449 1315)"/><path d="M114.81 0.590076 58.373 46.9959 0.467033-0.428417C-0.0797734-0.822434-0.755103-0.146886-0.361091 0.399715L46.17 59.1963 0.341042 115.061C-0.0234255 115.602 0.62257 116.251 1.16115 115.886L56.2048 69.2311 115.58 116.339C116.124 116.725 116.794 116.058 116.405 115.511L68.405 57.028 115.636 1.41293C115.998 0.871607 115.349 0.228348 114.81 0.590076" fill="#F3FCDD" fill-rule="evenodd" transform="matrix(1 0 0 -1 1411 1274)"/><path d="M5.23331 32.7403C12.848 40.357 25.1925 40.357 32.8097 32.7403 40.4244 25.1263 40.4244 12.7772 32.8097 5.16298 25.1925-2.45101 12.848-2.45101 5.23331 5.16298-2.38391 12.7772-2.38391 25.1263 5.23331 32.7403" fill="#F3FCDD" fill-rule="evenodd" transform="matrix(1 0 0 -1 1449 1235)"/><path d="M84.1835 0.351157 42.6994 34.4602 0.136076-0.400774C-0.264273-0.690175-0.764497-0.192508-0.472327 0.20784L33.7286 43.4282 0.0413126 84.4903C-0.223599 84.8879 0.247024 85.3639 0.64716 85.0962L41.1063 50.8006 84.7486 85.4288C85.149 85.7127 85.6411 85.2205 85.3545 84.8202L50.0718 41.8351 84.7893 0.954235C85.057 0.556655 84.5783 0.0834769 84.1835 0.351157" fill="#F3FCDD" fill-rule="evenodd" transform="matrix(1 0 0 -1 1538 1330)"/><path d="M3.67901 24.2601C9.34324 29.9218 18.525 29.9218 24.1866 24.2601 29.8481 18.5986 29.8481 9.41675 24.1866 3.75224 18.525-1.90926 9.34324-1.90926 3.67901 3.75224-1.98263 9.41675-1.98263 18.5986 3.67901 24.2601" fill="#F3FCDD" fill-rule="evenodd" transform="matrix(1 0 0 -1 1566 1301)"/><path d="M63.4821 0.0383859 32.1299 25.423-0.0417551-0.521041C-0.344906-0.736883-0.720915-0.366658-0.501701-0.0681716L25.3498 32.0962-0.112057 62.6541C-0.312311 62.9499 0.0447376 63.3042 0.345119 63.1045L30.9261 37.5837 63.9096 63.3522C64.2126 63.5626 64.5833 63.1976 64.3694 62.8993L37.7008 30.9107 63.942 0.488528C64.1423 0.190251 63.7825-0.161514 63.4821 0.0383859" fill="#F7FDE9" fill-rule="evenodd" transform="matrix(1 0 0 -1 1559 1199)"/><path d="M2.64403 18.174C6.94107 22.4684 13.9058 22.4684 18.2002 18.174 22.4975 13.8767 22.4975 6.91203 18.2002 2.61759 13.9058-1.67945 6.94107-1.67945 2.64403 2.61759-1.65062 6.91203-1.65062 13.8767 2.64403 18.174" fill="#F7FDE9" fill-rule="evenodd" transform="matrix(1 0 0 -1 1580 1178)"/><path d="M26.2312 0.148996 22.0086 22.2056 0.0971441 25.809C-0.112349 25.8429-0.112349 26.1486 0.0971441 26.1825L22.0086 29.7865 26.2312 51.8429C26.2705 52.0467 26.5585 52.0467 26.5984 51.8429L30.909 29.7865 51.7847 26.1825C51.9922 26.1475 51.9922 25.8446 51.7847 25.809L30.909 22.2056 26.5984 0.147498C26.5585-0.0562611 26.2705-0.0547637 26.2312 0.148996" fill="#FDDF88" fill-rule="evenodd" transform="matrix(1 0 0 -1 2087 1490)"/><path d="M57.4799 0.944308 28.6515 20.4075 0.407953 0.0538555C0.137734-0.140885-0.196103 0.192431-0.00136474 0.463178L20.3521 28.7071 0.889287 57.5362C0.708511 57.8029 1.02786 58.1228 1.29535 57.9431L30.2217 38.5758 57.3163 57.7799C57.5862 57.9722 57.9168 57.6414 57.7251 57.3723L38.5208 30.2778 57.8881 1.34954C58.0673 1.08288 57.7471 0.76479 57.4799 0.944308" fill="#FDDF88" fill-rule="evenodd" transform="matrix(1 0 0 -1 2084 1493)"/><path d="M27.755 0.491713 13.8375 9.88792 0.202976 0.0608929C0.0721575-0.0334751-0.0891608 0.128374 0.00520724 0.259725L9.83064 13.8937 0.434964 27.8107C0.347823 27.9404 0.501915 28.0942 0.631033 28.0078L14.5956 18.6589 27.6759 27.9298C27.8056 28.0215 27.9658 27.8624 27.8736 27.731L18.6022 14.6518 27.9522 0.68725C28.0386 0.557494 27.8836 0.40404 27.755 0.491713" fill="#FAB420" fill-rule="evenodd" transform="matrix(1 0 0 -1 2044 1519)"/><path d="M60.7966 31.38 34.9235 26.346 30.6961 0.220682C30.6563-0.0299194 30.2974-0.0299194 30.2576 0.220682L26.0301 26.346 0.157548 31.38C-0.0826863 31.4268-0.0832149 31.7706 0.156596 31.818L26.0301 36.9571 30.2576 61.8468C30.2994 62.0947 30.6541 62.0947 30.6961 61.8468L34.9235 36.9571 60.7977 31.818C61.0374 31.7706 61.0363 31.4268 60.7966 31.38" fill="#FAB420" fill-rule="evenodd" transform="matrix(1 0 0 -1 2028 1537)"/><path d="M14.6457 0.0646111 12.2907 11.9403 0.0705499 13.88C-0.0460712 13.8987-0.0460712 14.0632 0.0705499 14.0819L12.2907 16.0216 14.6457 27.8983C14.6674 28.0088 14.8281 28.0088 14.8504 27.8983L17.2543 16.0216 28.8963 14.0819C29.0118 14.0632 29.0118 13.8987 28.8963 13.88L17.2543 11.9403 14.8504 0.0635657C14.8281-0.0469424 14.6674-0.0454787 14.6457 0.0646111" fill="#FBC77D" fill-rule="evenodd" transform="matrix(1 0 0 -1 2035 1462)"/><path d="M31.7298 0.503839 15.824 11.2421 0.241608 0.0135633C0.0918911-0.0945223-0.0916808 0.091263 0.0152451 0.239302L11.245 15.8222 0.506557 31.7285C0.406991 31.875 0.583309 32.0514 0.730923 31.9527L16.6904 21.2677 31.639 31.8645C31.7877 31.9684 31.9702 31.7858 31.8654 31.6387L21.2694 16.6876 31.9545 0.728211C32.0537 0.581013 31.8769 0.404795 31.7298 0.503839" fill="#FBC77D" fill-rule="evenodd" transform="matrix(1 0 0 -1 2033 1464)"/><path d="M7.80776 4.38701C7.80776 1.90137 6.01717-0.113133 3.80932-0.113133 1.59996-0.113133-0.192144 1.90137-0.192144 4.38701-0.192144 6.87266 1.59996 8.88716 3.80932 8.88716 6.01717 8.88716 7.80776 6.87266 7.80776 4.38701" fill="#FDDF88" fill-rule="evenodd" transform="matrix(1 0 0 -1 2863 1434)"/><path d="M8.85456 3.84055C8.85456 1.63118 6.83857-0.159401 4.35459-0.159401 1.86904-0.159401-0.145376 1.63118-0.145376 3.84055-0.145376 6.05003 1.86904 7.8405 4.35459 7.8405 6.83857 7.8405 8.85456 6.05003 8.85456 3.84055" fill="#FDDF88" fill-rule="evenodd" transform="matrix(1 0 0 -1 2763 1362)"/><path d="M4.82865 2.87114C4.82865 1.21456 3.70919-0.128712 2.32862-0.128712 0.947945-0.128712-0.171515 1.21456-0.171515 2.87114-0.171515 4.52785 0.947945 5.87112 2.32862 5.87112 3.70919 5.87112 4.82865 4.52785 4.82865 2.87114" fill="#FAB420" fill-rule="evenodd" transform="matrix(1 0 0 -1 2845 1418)"/><path d="M5.7877 2.89265C5.7877 1.23757 4.44404-0.105777 2.78685-0.105777 1.13139-0.105777-0.212269 1.23757-0.212269 2.89265-0.212269 4.5512 1.13139 5.89455 2.78685 5.89455 4.44404 5.89455 5.7877 4.5512 5.7877 2.89265" fill="#FAB420" fill-rule="evenodd" transform="matrix(1 0 0 -1 2853 1442)"/><path d="M0.649669 0.248432 17.4288 24.6044-0.116715 48.4657C-0.28546 48.6932 0.0034516 48.9749 0.235604 48.8094L24.5837 31.6163 49.4368 48.0584C49.6656 48.2095 49.9418 47.9423 49.7891 47.7148L33.0927 23.2775 49.6479 0.386868C49.8118 0.159232 49.5277-0.120771 49.2956 0.0415933L25.9378 16.2656 1.00199-0.0968423C0.769836-0.248057 0.495369 0.0224253 0.649669 0.248432" fill="#FAB420" fill-rule="evenodd" transform="matrix(1 0 0 -1 2779 1417)"/><path d="M54.9472 0.177442 46.0953 45.9862 0.164858 53.4691C-0.273925 53.5412-0.273925 54.1754 0.164858 54.2458L46.0953 61.7304 54.9472 107.541C55.0285 107.964 55.6334 107.965 55.7163 107.542L64.7518 61.7304 108.51 54.2458C108.944 54.1722 108.944 53.5444 108.51 53.4707L64.7518 45.9862 55.7163 0.175803C55.6334-0.248571 55.0285-0.247057 54.9472 0.177442" fill="#FAB420" fill-rule="evenodd" transform="matrix(1 0 0 -1 2749 1446)"/><path d="M66.5923 33.6577 36.6722 30.734 33.6245 0.0304506C33.5796-0.243857 33.1856-0.243857 33.1407 0.0304506L29.5726 30.734-0.0128628 33.6577C-0.275542 33.709-0.275542 34.0862-0.0128628 34.1391L29.5726 36.5814 33.1407 67.6203C33.1873 67.893 33.5764 67.893 33.6228 67.6203L36.6722 36.5814 66.594 34.1391C66.8567 34.0862 66.855 33.709 66.5923 33.6577" fill="#FAB420" fill-rule="evenodd" transform="matrix(1 0 0 -1 2836 1389)"/><path d="M-0.209552 7.82525C-0.209552 12.2437 3.37186 15.8252 7.79035 15.8252 12.2087 15.8252 15.7903 12.2437 15.7903 7.82525 15.7903 3.40677 12.2087-0.174648 7.79035-0.174648 3.37186-0.174648-0.209552 3.40677-0.209552 7.82525" fill="#FAB420" fill-rule="evenodd" transform="matrix(1 0 0 -1 2862 1363)"/><path d="M98.9324 50.9355C98.9324 49.4895 98.0595 48.1829 96.7143 47.6617L75.9334 39.6376C68.6214 36.8131 62.8899 30.9265 60.1994 23.4956L52.2973 1.58702C52.2422 1.42112 52.1177 1.30554 52.0365 1.15733 51.9686 1.03506 51.9034 0.915183 51.8215 0.806131 51.6937 0.63594 51.5676 0.485499 51.4082 0.34811 51.1662 0.130004 50.8986-0.0597643 50.5998-0.194921 50.411-0.266878 50.2223-0.336775 50.0325-0.360647 49.8445-0.408733 49.6557-0.432776 49.467-0.432776L48.854-0.360647C48.6652-0.336775 48.4765-0.266878 48.2878-0.194921 47.977-0.0575317 47.7036 0.13653 47.4572 0.361162 47.3048 0.494257 47.1828 0.642466 47.0584 0.803898 46.9874 0.899899 46.9288 0.998132 46.8696 1.10272 46.7715 1.26845 46.6334 1.40154 46.5659 1.58702L38.6644 23.4956C35.9984 30.9265 30.2662 36.8131 22.9538 39.6376L2.17243 47.6617C0.827843 48.1829-0.0677497 49.4895-0.0677497 50.9355-0.0677497 52.4557 0.922727 53.8079 2.36202 54.2594L21.3732 60.29C29.6057 62.9007 36.0923 69.3108 38.8752 77.5225L46.6121 100.526C46.708 100.786 46.8256 101.023 46.9669 101.237 47.0609 101.381 47.1556 101.523 47.2973 101.643 47.5799 101.95 47.9347 102.188 48.3587 102.354 48.4765 102.402 48.6178 102.45 48.7601 102.472 48.9726 102.543 49.2071 102.568 49.4433 102.568 49.6796 102.568 49.9158 102.543 50.1283 102.472 50.2687 102.45 50.411 102.402 50.5296 102.354 50.9063 102.212 51.2363 101.974 51.5199 101.713 51.6368 101.595 51.7316 101.475 51.8264 101.357 52.0143 101.095 52.1804 100.834 52.2742 100.526L60.0115 77.5225C62.7713 69.3108 69.2809 62.9007 77.4904 60.29L96.5026 54.2594C97.9657 53.8079 98.9324 52.4557 98.9324 50.9355" fill="#FAB420" fill-rule="evenodd" transform="matrix(1 0 0 -1 2277 1077)"/><path d="M57.9708 29.941C57.9708 29.0821 57.4594 28.3087 56.6717 27.999L44.4971 23.2492C40.2125 21.5752 36.8543 18.0886 35.2785 13.6881L30.6499 0.713054C30.6167 0.616354 30.5445 0.546121 30.4964 0.458071 30.4566 0.387838 30.4185 0.315356 30.3697 0.251697 30.2955 0.150672 30.2212 0.0605456 30.1285-0.0207585 29.986-0.150326 29.8298-0.262422 29.6543-0.341477 29.5448-0.385416 29.4334-0.427279 29.3227-0.440426 29.2123-0.468969 29.1018-0.482116 28.9904-0.482116L28.632-0.440426C28.5213-0.427279 28.4111-0.385416 28.3004-0.341477 28.1173-0.260173 27.9588-0.146001 27.8137-0.0119361 27.7243 0.0671191 27.6525 0.154997 27.5801 0.249448 27.5388 0.306534 27.5041 0.365868 27.4694 0.427452 27.4123 0.524152 27.3313 0.603207 27.2907 0.713054L22.6621 13.6881C21.0996 18.0886 17.7414 21.5752 13.4585 23.2492L1.28315 27.999C0.496188 28.3087-0.0294176 29.0821-0.0294176 29.941-0.0294176 30.8397 0.550942 31.6415 1.39453 31.9096L12.5322 35.4795C17.355 37.0262 21.1562 40.8226 22.7861 45.6867L27.3194 59.3077C27.3742 59.4636 27.4434 59.6042 27.526 59.7317 27.5818 59.8151 27.6366 59.8986 27.72 59.9688 27.8853 60.1534 28.0938 60.2941 28.3409 60.3928 28.4111 60.4191 28.4944 60.4478 28.5762 60.461 28.701 60.5027 28.8386 60.5181 28.977 60.5181 29.1153 60.5181 29.2537 60.5027 29.3776 60.461 29.4613 60.4478 29.5448 60.4191 29.613 60.3928 29.834 60.3072 30.0272 60.1666 30.1927 60.0128 30.2625 59.9403 30.3175 59.8722 30.3732 59.7997 30.4836 59.6459 30.5798 59.4921 30.6354 59.3077L35.169 45.6867C36.7851 40.8226 40.599 37.0262 45.409 35.4795L56.5478 31.9096C57.4039 31.6415 57.9708 30.8397 57.9708 29.941" fill="#FDDF88" fill-rule="evenodd" transform="matrix(1 0 0 -1 2241 1005)"/><path d="M57.8977 29.5459C57.8977 28.7032 57.3866 27.9424 56.5986 27.6379L44.4231 22.9638C40.1397 21.3171 36.7804 17.8877 35.2055 13.5616L30.5758 0.796989C30.5439 0.701875 30.4704 0.634835 30.4231 0.548568 30.3835 0.477105 30.3448 0.408023 30.2965 0.343195 30.2216 0.243827 30.1482 0.155178 30.0553 0.0774189 29.9128-0.0500245 29.7566-0.162495 29.5821-0.240254 29.4699-0.28126 29.3602-0.322437 29.2498-0.33758 29.1383-0.363443 29.0278-0.378587 28.9174-0.378587L28.559-0.33758C28.4484-0.322437 28.3369-0.28126 28.2263-0.240254 28.0444-0.160283 27.8847-0.0457707 27.7405 0.0838847 27.6511 0.161644 27.5793 0.248081 27.5069 0.340984 27.4656 0.397304 27.431 0.455495 27.3957 0.516069 27.3374 0.611184 27.2571 0.691155 27.2176 0.796989L22.588 13.5616C21.0267 17.8877 17.6683 21.3171 13.3854 22.9638L1.21004 27.6379C0.42205 27.9424-0.102537 28.7032-0.102537 29.5459-0.102537 30.4319 0.476804 31.2185 1.32056 31.4821L12.4592 34.9957C17.2828 36.5148 21.083 40.249 22.7128 45.0333L27.2462 58.4331C27.301 58.5865 27.3703 58.7227 27.4528 58.8481 27.5086 58.9301 27.5633 59.0145 27.647 59.0813 27.8125 59.2629 28.0191 59.4012 28.2678 59.4963 28.3369 59.5266 28.4205 59.5525 28.5032 59.5676 28.6271 59.6086 28.7656 59.6216 28.9038 59.6216 29.0422 59.6216 29.1798 59.6086 29.3046 59.5676 29.3881 59.5525 29.4699 59.5266 29.5401 59.4963 29.761 59.4142 29.954 59.2758 30.1203 59.1246 30.1895 59.0555 30.2443 58.9864 30.3 58.9171 30.4106 58.7659 30.5075 58.6124 30.5624 58.4331L35.0958 45.0333C36.7119 40.249 40.526 36.5148 45.335 34.9957L56.4738 31.4821C57.33 31.2185 57.8977 30.4319 57.8977 29.5459" fill="#FDDF88" fill-rule="evenodd" transform="matrix(1 0 0 -1 2349 1112)"/><path d="M-0.10191 5.52984C-0.10191 8.84229 2.58376 11.5287 5.89819 11.5287 9.21263 11.5287 11.8983 8.84229 11.8983 5.52984 11.8983 2.21494 9.21263-0.471309 5.89819-0.471309 2.58376-0.471309-0.10191 2.21494-0.10191 5.52984" fill="#FAB420" fill-rule="evenodd" transform="matrix(1 0 0 -1 2367 998)"/><path d="M-0.0330353 5.1496C-0.0330353 8.18559 2.65261 10.6496 5.96681 10.6496 9.27995 10.6496 11.9672 8.18559 11.9672 5.1496 11.9672 2.11169 9.27995-0.350399 5.96681-0.350399 2.65261-0.350399-0.0330353 2.11169-0.0330353 5.1496" fill="#FDDF88" fill-rule="evenodd" transform="matrix(1 0 0 -1 2268 1095)"/><path d="M-0.0156877 2.60161C-0.0156877 4.25668 1.32747 5.60179 2.98423 5.60179 4.64115 5.60179 5.98431 4.25668 5.98431 2.60161 5.98431 0.944438 4.64115-0.398569 2.98423-0.398569 1.32747-0.398569-0.0156877 0.944438-0.0156877 2.60161" fill="#FAB420" fill-rule="evenodd" transform="matrix(1 0 0 -1 2248 1039)"/><path d="M-0.119354 3.54263C-0.119354 5.75161 1.67202 7.54267 3.88051 7.54267 6.09042 7.54267 7.88055 5.75161 7.88055 3.54263 7.88055 1.33364 6.09042-0.457412 3.88051-0.457412 1.67202-0.457412-0.119354 1.33364-0.119354 3.54263" fill="#FDDF88" fill-rule="evenodd" transform="matrix(1 0 0 -1 2391 1020)"/><path d="M-0.11401 3.50811C-0.11401 5.71701 1.67724 7.50815 3.88665 7.50815 6.09606 7.50815 7.88643 5.71701 7.88643 3.50811 7.88643 1.29902 6.09606-0.492113 3.88665-0.492113 1.67724-0.492113-0.11401 1.29902-0.11401 3.50811" fill="#FDDF88" fill-rule="evenodd" transform="matrix(1 0 0 -1 2383 982)"/><path d="M-0.0403775 3.13663C-0.0403775 5.07206 1.74922 6.63766 3.9586 6.63766 6.16815 6.63766 7.95952 5.07206 7.95952 3.13663 7.95952 1.20338 6.16815-0.362368 3.9586-0.362368 1.74922-0.362368-0.0403775 1.20338-0.0403775 3.13663" fill="#FAB420" fill-rule="evenodd" transform="matrix(1 0 0 -1 2280 1066)"/><path d="M2847.12 2268.56 2933.81 2268.56 2933.81 2274.17 2893.54 2274.17 2893.54 2305 2886.94 2305 2886.94 2274.17 2847.12 2274.17ZM2939.94 2263.82 3026.41 2263.82 3026.41 2269.44 2986.36 2269.44 2986.36 2305 2979.76 2305 2979.76 2269.44 2939.94 2269.44ZM2890.13 2218.24C2884.87 2218.33 2880.63 2219.97 2877.4 2223.16 2874.17 2226.34 2872.52 2230.54 2872.42 2235.75 2872.52 2240.86 2874.17 2245.01 2877.4 2248.2 2880.63 2251.4 2884.87 2253.05 2890.13 2253.14 2895.62 2253.06 2900.03 2251.44 2903.36 2248.3 2906.7 2245.16 2908.41 2241.01 2908.51 2235.86 2908.41 2230.65 2906.7 2226.43 2903.36 2223.21 2900.03 2219.99 2895.62 2218.34 2890.13 2218.24ZM2979.76 2213.07 2986.91 2213.07 2986.91 2221.44C2986.82 2222.7 2987.25 2224 2988.21 2225.35 2989.16 2226.69 2991.19 2228.43 2994.28 2230.58L3018.93 2248.08 3015.41 2252.92 2990.76 2235.42C2987.26 2232.98 2984.81 2230.7 2983.39 2228.59 2982.63 2229.64 2981.63 2230.74 2980.4 2231.88 2979.16 2233.03 2977.67 2234.21 2975.91 2235.42L2951.27 2252.92 2947.75 2248.08 2972.39 2230.58C2975.49 2228.43 2977.52 2226.69 2978.47 2225.35 2979.42 2224 2979.86 2222.7 2979.76 2221.44ZM2890.13 2212.3C2897.52 2212.42 2903.46 2214.6 2907.96 2218.86 2912.45 2223.12 2914.76 2228.75 2914.89 2235.75 2914.76 2242.69 2912.45 2248.27 2907.96 2252.48 2903.46 2256.7 2897.52 2258.87 2890.13 2258.98 2882.97 2258.87 2877.19 2256.7 2872.81 2252.48 2868.42 2248.27 2866.17 2242.69 2866.04 2235.75 2866.17 2228.75 2868.42 2223.12 2872.81 2218.86 2877.19 2214.6 2882.97 2212.42 2890.13 2212.3ZM1376.97 2205.81 1463.65 2205.81 1463.65 2211.42 1423.39 2211.42 1423.39 2242.25 1416.79 2242.25 1416.79 2211.42 1376.97 2211.42ZM1469.79 2201.08 1556.25 2201.08 1556.25 2206.69 1516.21 2206.69 1516.21 2242.25 1509.61 2242.25 1509.61 2206.69 1469.79 2206.69ZM1419.98 2155.5C1414.72 2155.59 1410.47 2157.22 1407.25 2160.41 1404.02 2163.6 1402.36 2167.79 1402.27 2173 1402.36 2178.11 1404.02 2182.26 1407.25 2185.46 1410.47 2188.65 1414.72 2190.3 1419.98 2190.4 1425.46 2190.31 1429.87 2188.69 1433.21 2185.55 1436.55 2182.41 1438.26 2178.26 1438.35 2173.11 1438.26 2167.9 1436.55 2163.68 1433.21 2160.46 1429.87 2157.25 1425.46 2155.59 1419.98 2155.5ZM1509.61 2150.32 1516.76 2150.32 1516.76 2158.69C1516.67 2159.95 1517.1 2161.25 1518.05 2162.6 1519.01 2163.94 1521.03 2165.69 1524.13 2167.83L1548.77 2185.33 1545.25 2190.18 1520.61 2172.67C1517.11 2170.23 1514.65 2167.96 1513.24 2165.85 1512.47 2166.89 1511.48 2167.99 1510.24 2169.13 1509.01 2170.28 1507.52 2171.46 1505.76 2172.67L1481.12 2190.18 1477.6 2185.33 1502.24 2167.83C1505.34 2165.69 1507.36 2163.94 1508.32 2162.6 1509.27 2161.25 1509.7 2159.95 1509.61 2158.69ZM1419.98 2149.55C1427.37 2149.67 1433.31 2151.86 1437.8 2156.12 1442.3 2160.38 1444.61 2166 1444.73 2173 1444.61 2179.94 1442.3 2185.52 1437.8 2189.74 1433.31 2193.95 1427.37 2196.12 1419.98 2196.23 1412.82 2196.12 1407.04 2193.95 1402.65 2189.74 1398.27 2185.52 1396.01 2179.94 1395.89 2173 1396.01 2166 1398.27 2160.38 1402.65 2156.12 1407.04 2151.86 1412.82 2149.67 1419.98 2149.55ZM2982.05 2122.5C2975.28 2122.63 2969.83 2124.48 2965.68 2128.07 2961.54 2131.65 2959.41 2136.21 2959.29 2141.73 2959.41 2147.27 2961.54 2151.85 2965.68 2155.48 2969.83 2159.1 2975.28 2160.98 2982.05 2161.12 2988.76 2160.98 2994.2 2159.1 2998.37 2155.48 3002.54 2151.85 3004.69 2147.27 3004.82 2141.73 3004.69 2136.21 3002.54 2131.65 2998.37 2128.07 2994.2 2124.48 2988.76 2122.63 2982.05 2122.5ZM2982.05 2114.22C2991.44 2114.28 2998.95 2116.71 3004.58 2121.49 3010.21 2126.27 3013.1 2133.02 3013.24 2141.73 3013.1 2149.75 3010.21 2156.32 3004.58 2161.45 2998.95 2166.58 2991.44 2169.23 2982.05 2169.4 2972.73 2169.23 2965.24 2166.58 2959.58 2161.45 2953.92 2156.32 2951.02 2149.75 2950.86 2141.73 2951.02 2133.02 2953.92 2126.27 2959.58 2121.49 2965.24 2116.71 2972.73 2114.28 2982.05 2114.22ZM2157 2103.76 2243.69 2103.76 2243.69 2109.37 2203.43 2109.37 2203.43 2140.2 2196.83 2140.2 2196.83 2109.37 2157 2109.37ZM2249.82 2099.03 2336.29 2099.03 2336.29 2104.64 2296.25 2104.64 2296.25 2140.2 2289.65 2140.2 2289.65 2104.64 2249.82 2104.64ZM2923.96 2095.43 3040 2095.43 3040 2102.83 2923.96 2102.83ZM2092.57 2094.51 2099.5 2094.51 2099.5 2112.02 2125.68 2112.02 2125.68 2117.3 2067.15 2117.3 2067.15 2112.02 2092.57 2112.02ZM1508.46 2059.75C1501.69 2059.88 1496.24 2061.74 1492.09 2065.32 1487.95 2068.91 1485.81 2073.46 1485.7 2078.99 1485.81 2084.52 1487.95 2089.1 1492.09 2092.73 1496.24 2096.35 1501.69 2098.23 1508.46 2098.37 1515.17 2098.23 1520.6 2096.35 1524.78 2092.73 1528.95 2089.1 1531.1 2084.52 1531.23 2078.99 1531.1 2073.46 1528.95 2068.91 1524.78 2065.32 1520.6 2061.74 1515.17 2059.88 1508.46 2059.75ZM2200.02 2053.45C2194.75 2053.54 2190.51 2055.17 2187.28 2058.36 2184.06 2061.55 2182.4 2065.74 2182.3 2070.95 2182.4 2076.06 2184.06 2080.21 2187.28 2083.41 2190.51 2086.6 2194.75 2088.25 2200.02 2088.35 2205.5 2088.26 2209.91 2086.64 2213.24 2083.5 2216.58 2080.36 2218.3 2076.21 2218.39 2071.06 2218.3 2065.85 2216.58 2061.63 2213.24 2058.41 2209.91 2055.2 2205.5 2053.54 2200.02 2053.45ZM1508.46 2051.47C1517.85 2051.53 1525.35 2053.96 1530.99 2058.74 1536.62 2063.52 1539.51 2070.27 1539.65 2078.99 1539.51 2087 1536.62 2093.57 1530.99 2098.7 1525.35 2103.83 1517.85 2106.48 1508.46 2106.65 1499.14 2106.48 1491.65 2103.83 1485.99 2098.7 1480.33 2093.57 1477.43 2087 1477.27 2078.99 1477.43 2070.27 1480.33 2063.52 1485.99 2058.74 1491.65 2053.96 1499.14 2051.53 1508.46 2051.47ZM2847.03 2049.72 2904.68 2049.72 2906.16 2057.41 2876.6 2090.7C2886.36 2091.06 2894.44 2094.29 2900.82 2100.37 2907.21 2106.45 2910.51 2114.07 2910.74 2123.24 2910.67 2129.57 2909.08 2135.27 2905.96 2140.34 2902.85 2145.4 2898.66 2149.43 2893.4 2152.4 2888.14 2155.38 2882.24 2156.9 2875.71 2156.97 2866.16 2156.76 2858.24 2153.78 2851.95 2148.04 2845.65 2142.3 2842.39 2135.07 2842.15 2126.35L2850.88 2126.35C2851.04 2132.94 2853.44 2138.37 2858.08 2142.64 2862.72 2146.92 2868.6 2149.13 2875.71 2149.28 2883.21 2149.1 2889.42 2146.58 2894.35 2141.72 2899.28 2136.86 2901.84 2130.75 2902.02 2123.39 2901.84 2116.42 2899.32 2110.65 2894.45 2106.08 2889.57 2101.51 2883.43 2099.15 2876.01 2098.98L2869.21 2098.98 2862.7 2093.36 2895.67 2057.41 2847.03 2057.41ZM2289.65 2048.27 2296.8 2048.27 2296.8 2056.64C2296.7 2057.9 2297.13 2059.2 2298.09 2060.55 2299.04 2061.89 2301.07 2063.63 2304.17 2065.78L2328.81 2083.28 2325.29 2088.13 2300.65 2070.62C2297.14 2068.18 2294.69 2065.91 2293.28 2063.8 2292.51 2064.84 2291.51 2065.94 2290.28 2067.08 2289.04 2068.23 2287.55 2069.41 2285.8 2070.62L2261.15 2088.13 2257.63 2083.28 2282.27 2065.78C2285.37 2063.63 2287.4 2061.89 2288.35 2060.55 2289.31 2059.2 2289.74 2057.9 2289.65 2056.64ZM2200.02 2047.5C2207.4 2047.62 2213.34 2049.81 2217.84 2054.07 2222.33 2058.32 2224.64 2063.95 2224.77 2070.95 2224.64 2077.89 2222.33 2083.47 2217.84 2087.69 2213.34 2091.9 2207.4 2094.07 2200.02 2094.18 2192.85 2094.07 2187.08 2091.9 2182.69 2087.69 2178.3 2083.47 2176.05 2077.89 2175.92 2070.95 2176.05 2063.95 2178.3 2058.32 2182.69 2054.07 2187.08 2049.81 2192.85 2047.62 2200.02 2047.5ZM2092.9 2046.07 2099.06 2046.07 2099.06 2057.19 2121.94 2057.19 2121.94 2062.69 2099.28 2062.69C2099.22 2064.5 2099.58 2066.42 2100.33 2068.43 2101.09 2070.45 2102.57 2072.61 2104.78 2074.91L2122.6 2092.09 2118.42 2096.49 2100.6 2079.1C2098.62 2077.12 2097.08 2075.13 2095.98 2073.15 2095.44 2074.15 2094.78 2075.16 2094.02 2076.18 2093.26 2077.2 2092.34 2078.21 2091.25 2079.21L2073.31 2096.49 2069.13 2092.09 2087.06 2074.8C2089.42 2072.61 2090.96 2070.51 2091.69 2068.5 2092.41 2066.5 2092.74 2064.56 2092.68 2062.69L2070.01 2062.69 2070.01 2057.19 2092.9 2057.19ZM2134.48 2044.42 2141.3 2044.42 2141.3 2137.01 2134.48 2137.01ZM2941.85 2043.8 3022.7 2043.8 3022.7 2051.64 2950.71 2051.64 2950.71 2075.75 3022.7 2075.75 3022.7 2083.3 2941.85 2083.3ZM1450.37 2032.68 1566.41 2032.68 1566.41 2040.08 1450.37 2040.08ZM1403.78 1985.34C1413.02 1985.5 1420.45 1988.51 1426.05 1994.36 1431.65 2000.22 1434.53 2007.96 1434.68 2017.59 1434.43 2025.05 1431.55 2032.75 1426.04 2040.7 1420.53 2048.64 1413.85 2056.47 1406.01 2064.17 1398.17 2071.86 1390.62 2079.07 1383.38 2085.79L1436.6 2085.79 1436.6 2093.49 1373.48 2093.49 1372 2085.79C1377.37 2080.61 1383.14 2075.1 1389.31 2069.25 1395.48 2063.4 1401.35 2057.46 1406.92 2051.41 1412.49 2045.37 1417.05 2039.48 1420.6 2033.72 1424.15 2027.96 1425.99 2022.59 1426.1 2017.59 1426 2010.22 1423.92 2004.29 1419.88 1999.8 1415.83 1995.31 1410.47 1993.01 1403.78 1992.89 1399.01 1992.97 1394.51 1994.58 1390.27 1997.71 1386.04 2000.85 1382.76 2005.01 1380.43 2010.19L1372.3 2006.79C1375.19 2000.4 1379.49 1995.25 1385.21 1991.35 1390.93 1987.45 1397.12 1985.45 1403.78 1985.34ZM1468.25 1981.05 1549.11 1981.05 1549.11 1988.89 1477.12 1988.89 1477.12 2013.01 1549.11 2013.01 1549.11 2020.55 1468.25 2020.55ZM2226.62 1957.7C2219.85 1957.83 2214.39 1959.69 2210.25 1963.27 2206.1 1966.86 2203.97 1971.41 2203.85 1976.94 2203.97 1982.47 2206.1 1987.05 2210.25 1990.68 2214.39 1994.3 2219.85 1996.18 2226.62 1996.32 2233.32 1996.18 2238.76 1994.3 2242.93 1990.68 2247.11 1987.05 2249.26 1982.47 2249.38 1976.94 2249.26 1971.41 2247.11 1966.86 2242.93 1963.27 2238.76 1959.69 2233.32 1957.83 2226.62 1957.7ZM2226.62 1949.42C2236 1949.48 2243.51 1951.91 2249.14 1956.69 2254.77 1961.47 2257.66 1968.22 2257.81 1976.94 2257.66 1984.95 2254.77 1991.52 2249.14 1996.65 2243.51 2001.78 2236 2004.43 2226.62 2004.6 2217.3 2004.43 2209.81 2001.78 2204.15 1996.65 2198.49 1991.52 2195.58 1984.95 2195.43 1976.94 2195.58 1968.22 2198.49 1961.47 2204.15 1956.69 2209.81 1951.91 2217.3 1949.48 2226.62 1949.42ZM2168.52 1930.63 2284.56 1930.63 2284.56 1938.03 2168.52 1938.03ZM2140.87 1884.92 2149.59 1884.92 2149.59 1991.29 2140.87 1991.29 2140.87 1895.57 2122.24 1910.22 2116.62 1904ZM2186.41 1879 2267.27 1879 2267.27 1886.84 2195.28 1886.84 2195.28 1910.95 2267.27 1910.95 2267.27 1918.5 2186.41 1918.5Z" fill="#FFFFFF" fill-rule="evenodd"/></g></svg>